<?xml version="1.0" encoding="UTF-8"?>
<svg id="Layer_1" data-name="Layer 1" xmlns="http://www.w3.org/2000/svg" version="1.1" viewBox="0 0 1080 869.3">
  <defs>
    <style>
      .cls-1 {
        fill: #363144;
      }

      .cls-1, .cls-2, .cls-3, .cls-4, .cls-5 {
        stroke-width: 0px;
      }

      .cls-2 {
        fill: #ff0074;
      }

      .cls-3 {
        fill: #c6c6c6;
      }

      .cls-4 {
        fill: #757575;
      }

      .cls-5 {
        fill: #fff;
        opacity: .5;
      }
    </style>
  </defs>
  <circle class="cls-4" cx="645.4" cy="434.6" r="434.6"/>
  <ellipse class="cls-3" cx="376.6" cy="372.9" rx="100.2" ry="159.8"/>
  <path class="cls-4" d="M152.6,460.9c-62.7,52.8-130.9,60.3-154,61.8,15.4,12.5,54.5,40.7,112.7,47.8,30.3,3.7,56.9.6,78.2-4.4,5.9-2.1,14.2-4.1,15.7-4.5.3,0,1.2-.3,2.5-.7,11.5-3.8,20.5-7.7,26.4-10.6.9-73.1,1.7-146.1,2.6-219.2-6.6,22.9-26.8,81.5-84,129.7Z"/>
  <ellipse class="cls-2" cx="351.5" cy="372.9" rx="70.9" ry="121.1"/>
  <ellipse class="cls-1" cx="146.4" cy="554" rx="23" ry="9.5"/>
  <ellipse class="cls-1" cx="329.3" cy="372.9" rx="20.5" ry="67.9"/>
  <ellipse class="cls-5" cx="379.2" cy="325.4" rx="50.3" ry="76.1"/>
  <g>
    <path class="cls-1" d="M583.8,406.5c-.4-12.7-20.1-12.7-19.7,0,1.9,67.6-20.7,135.1-64.6,186.8-40.7,47.9-101.1,86.7-164.8,92.7-15.7,1.5-31.5.5-46.7-2.9,3.2,3.6,5.5,7.8,7.9,11.9,2.9,3.3,5.6,6.8,8.3,10.3,39.9,3.2,82-8,117.8-26,62.4-31.5,112.3-85.4,139.2-149.8,16.2-38.8,23.9-80.9,22.7-122.9Z"/>
    <path class="cls-1" d="M599,368.9c-1.7,32.1-48.2,32.2-49.9,0-.6-10.5-17-10.6-16.4,0,1.2,22.4,18,41.4,41.4,41.4s40.2-19,41.4-41.4c.6-10.6-15.9-10.5-16.4,0h0Z"/>
  </g>
  <g>
    <path class="cls-4" d="M267.4,254.7c-9.3,36.9-4.6,48.6,1.3,52.5,21.6,14.2,90.2-55.8,141.8-108.4,26.2-26.8,32.2-35.6,29.9-39-1.4-2.1-8.2-5.2-137.9,53.3-11.9,5.4-21.8,9.9-28.6,13-2.2,9.5-4.3,19.1-6.5,28.6Z"/>
    <path class="cls-1" d="M266.6,312.2c36.9,17.6,69.7-13.6,94.5-37.4,28.2-27.1,53.4-57.2,75.4-89.5,7.2-10.5-9.9-20.4-17-10-19,27.8-40.5,53.8-64.3,77.7-11.3,11.3-22.9,22.9-35.7,32.4-11.9,8.8-28.2,16.8-42.9,9.8-11.4-5.4-21.4,11.6-10,17h0Z"/>
  </g>
  <ellipse class="cls-1" cx="711.7" cy="154.5" rx="91.7" ry="78.1"/>
  <ellipse class="cls-1" cx="662.2" cy="270.8" rx="24.1" ry="19"/>
  <ellipse class="cls-1" cx="613.4" cy="745.8" rx="48.1" ry="35.8"/>
  <ellipse class="cls-1" cx="590.6" cy="687.7" rx="16.6" ry="8.9"/>
  <ellipse class="cls-1" cx="442.7" cy="754.6" rx="14.7" ry="8.8"/>
  <circle class="cls-1" cx="436.1" cy="773.8" r="3"/>
  <ellipse class="cls-1" cx="470.3" cy="768.8" rx="9.1" ry="5.4"/>
  <ellipse class="cls-1" cx="711.7" cy="257.1" rx="8.5" ry="5.3"/>
  <ellipse class="cls-1" cx="798.8" cy="85.9" rx="9.8" ry="6.8"/>
  <path class="cls-1" d="M243.5,534.4c-1.3-9.8-8.3-17.1-16.2-22.4-6.8-4.5-14.8-7.1-20.1-13.3-3.5-4.1-10.4-3.6-14,0-4,4-3.5,9.9,0,14,5.1,6,12.1,9.6,18.9,13.3,2.8,1.5,5.9,3.3,7.8,5.1,2.3,2.1,3.7,3.5,4.1,6,.4,3-1.3,6.9-2.4,9.9-1.4,3.5-2.9,7-4.6,10.4-.3.5-.6,1-.8,1.5,5.8-1.4,11.6-2.5,11.7-1.8.3,5.4,2.1,10.5,3.1,15.8,1.6-2.8,3.2-5.6,4.6-8.6,4.3-9.1,9.3-19.5,7.9-29.8Z"/>
</svg>