<?xml version="1.0" encoding="UTF-8"?>
<svg xmlns="http://www.w3.org/2000/svg" version="1.1" xmlns:xlink="http://www.w3.org/1999/xlink" viewBox="0 0 1252 1309.5">
  <defs>
    <style>
      .cls-1 {
        fill: #f7931e;
      }

      .cls-1, .cls-2, .cls-3, .cls-4, .cls-5, .cls-6, .cls-7, .cls-8, .cls-9, .cls-10, .cls-11, .cls-12, .cls-13, .cls-14, .cls-15, .cls-16, .cls-17, .cls-18, .cls-19, .cls-20, .cls-21, .cls-22, .cls-23, .cls-24, .cls-25, .cls-26, .cls-27, .cls-28, .cls-29, .cls-30, .cls-31, .cls-32, .cls-33, .cls-34, .cls-35, .cls-36, .cls-37, .cls-38, .cls-39, .cls-40, .cls-41, .cls-42 {
        stroke-width: 0px;
      }

      .cls-2 {
        opacity: .4;
      }

      .cls-2, .cls-17, .cls-43 {
        fill: none;
      }

      .cls-3 {
        fill: url(#linear-gradient-12);
      }

      .cls-4 {
        fill: url(#linear-gradient-17);
      }

      .cls-5 {
        fill: url(#linear-gradient-19);
      }

      .cls-6 {
        fill: url(#linear-gradient);
      }

      .cls-7 {
        display: none;
        fill: url(#radial-gradient-2);
      }

      .cls-8 {
        fill: #1c1c1c;
      }

      .cls-9 {
        fill: #f2f2f2;
      }

      .cls-10 {
        fill: url(#linear-gradient-21);
      }

      .cls-44 {
        filter: url(#drop-shadow-4);
      }

      .cls-45, .cls-46 {
        isolation: isolate;
      }

      .cls-46 {
        fill: #ffc45e;
        font-family: PaindeMie-Regular, 'Pain de Mie';
        font-size: 136.5px;
      }

      .cls-11 {
        fill: url(#Medium_Spectrum_-2);
      }

      .cls-12 {
        fill: url(#linear-gradient-15);
      }

      .cls-13 {
        fill: url(#linear-gradient-6);
      }

      .cls-13, .cls-31 {
        mix-blend-mode: color-dodge;
      }

      .cls-14 {
        fill: url(#linear-gradient-11);
      }

      .cls-15 {
        fill: url(#linear-gradient-4);
        opacity: .4;
      }

      .cls-16 {
        fill: #ffa750;
      }

      .cls-47 {
        filter: url(#drop-shadow-3);
      }

      .cls-48 {
        filter: url(#outer-glow-1);
      }

      .cls-17 {
        opacity: .2;
      }

      .cls-18 {
        fill: url(#linear-gradient-13);
      }

      .cls-19 {
        fill: url(#linear-gradient-23);
      }

      .cls-20 {
        fill: url(#linear-gradient-25);
      }

      .cls-21 {
        fill: url(#linear-gradient-16);
      }

      .cls-22 {
        fill: url(#linear-gradient-22);
      }

      .cls-49 {
        filter: url(#luminosity-invert);
      }

      .cls-23 {
        fill: url(#Medium_Spectrum_);
      }

      .cls-24 {
        fill: url(#linear-gradient-20);
      }

      .cls-25 {
        fill: url(#linear-gradient-14);
      }

      .cls-26 {
        fill: url(#linear-gradient-2);
      }

      .cls-27 {
        fill: url(#linear-gradient-7);
      }

      .cls-28 {
        fill: url(#linear-gradient-3);
      }

      .cls-29 {
        fill: url(#linear-gradient-9);
      }

      .cls-30 {
        fill: url(#linear-gradient-27);
      }

      .cls-43 {
        opacity: .6;
        stroke: #fff;
        stroke-miterlimit: 10;
        stroke-opacity: .6;
        stroke-width: 16px;
      }

      .cls-31 {
        fill: url(#linear-gradient-5);
      }

      .cls-32 {
        fill: url(#linear-gradient-8);
      }

      .cls-33 {
        fill: url(#linear-gradient-24);
      }

      .cls-34 {
        fill: url(#linear-gradient-26);
      }

      .cls-50 {
        mix-blend-mode: multiply;
        opacity: .4;
      }

      .cls-35 {
        fill: url(#linear-gradient-18);
      }

      .cls-36 {
        fill: url(#linear-gradient-30);
      }

      .cls-37 {
        fill: url(#radial-gradient);
        filter: url(#drop-shadow-2);
      }

      .cls-51 {
        mask: url(#mask);
      }

      .cls-38 {
        fill: url(#linear-gradient-29);
      }

      .cls-39 {
        fill: url(#linear-gradient-28);
      }

      .cls-40 {
        fill: url(#linear-gradient-10);
      }

      .cls-41 {
        fill: #848484;
      }

      .cls-42 {
        fill: url(#radial-gradient-3);
      }

      .cls-52 {
        opacity: .8;
      }
    </style>
    <linearGradient id="linear-gradient" x1="578.2" y1="625.1" x2="1069.2" y2="908.6" gradientTransform="translate(-81.7 93) rotate(-6.4)" gradientUnits="userSpaceOnUse">
      <stop offset=".1" stop-color="#953d00" stop-opacity="0"/>
      <stop offset=".2" stop-color="rgba(149, 61, 0, .1)" stop-opacity=".1"/>
      <stop offset=".3" stop-color="rgba(149, 61, 0, .4)" stop-opacity=".4"/>
      <stop offset=".5" stop-color="rgba(149, 61, 0, 1)" stop-opacity="1"/>
      <stop offset=".5" stop-color="#953d00"/>
      <stop offset=".7" stop-color="#bc6916"/>
      <stop offset="1" stop-color="#fbb03b"/>
    </linearGradient>
    <filter id="outer-glow-1">
      <feOffset dx="0" dy="0"/>
      <feGaussianBlur result="blur" stdDeviation="9"/>
      <feFlood flood-color="#fff" flood-opacity=".4"/>
      <feComposite in2="blur" operator="in"/>
      <feComposite in="SourceGraphic"/>
    </filter>
    <linearGradient id="linear-gradient-2" x1="624.3" y1="323.2" x2="624.3" y2="951.4" gradientUnits="userSpaceOnUse">
      <stop offset="0" stop-color="#333"/>
      <stop offset="1" stop-color="#000"/>
    </linearGradient>
    <linearGradient id="Medium_Spectrum_" data-name="Medium Spectrum " x1="514" y1="494.4" x2="514" y2="736.7" gradientUnits="userSpaceOnUse">
      <stop offset="0" stop-color="#71caee"/>
      <stop offset=".2" stop-color="#8881b8"/>
      <stop offset=".4" stop-color="#ec98ba"/>
      <stop offset=".6" stop-color="#ee9579"/>
      <stop offset=".8" stop-color="#fcf099"/>
      <stop offset="1" stop-color="#83c59b"/>
    </linearGradient>
    <linearGradient id="Medium_Spectrum_-2" data-name="Medium Spectrum " x1="730.4" y1="494.4" x2="730.4" y2="736.7" xlink:href="#Medium_Spectrum_"/>
    <linearGradient id="linear-gradient-3" x1="621.2" y1="941.6" x2="621.2" y2="791.1" gradientUnits="userSpaceOnUse">
      <stop offset=".3" stop-color="#953d00" stop-opacity="0"/>
      <stop offset=".4" stop-color="rgba(149, 61, 0, .1)" stop-opacity=".1"/>
      <stop offset=".4" stop-color="rgba(149, 61, 0, .4)" stop-opacity=".4"/>
      <stop offset=".5" stop-color="rgba(149, 61, 0, 1)" stop-opacity="1"/>
      <stop offset=".5" stop-color="#953d00"/>
      <stop offset=".7" stop-color="#bc6916"/>
      <stop offset="1" stop-color="#fbb03b"/>
    </linearGradient>
    <linearGradient id="linear-gradient-4" x1="622.1" y1="786.8" x2="622.1" y2="251" gradientUnits="userSpaceOnUse">
      <stop offset="0" stop-color="#fff"/>
      <stop offset="1" stop-color="#000"/>
    </linearGradient>
    <linearGradient id="linear-gradient-5" x1="742.9" y1="360" x2="420.3" y2="37.4" gradientTransform="translate(387.6 -147.1) rotate(36.1)" gradientUnits="userSpaceOnUse">
      <stop offset="0" stop-color="#fff"/>
      <stop offset="1" stop-color="#000"/>
    </linearGradient>
    <linearGradient id="linear-gradient-6" x1="479.9" y1="266.1" x2="412.9" y2="199.1" gradientTransform="translate(387.6 -147.1) rotate(36.1)" xlink:href="#linear-gradient-4"/>
    <radialGradient id="radial-gradient" cx="630.1" cy="892.7" fx="630.1" fy="892.7" r="362.2" gradientTransform="translate(0 593.1) scale(1 .4)" gradientUnits="userSpaceOnUse">
      <stop offset="0" stop-color="#150015"/>
      <stop offset=".2" stop-color="rgba(21, 0, 21, .9)" stop-opacity=".9"/>
      <stop offset=".2" stop-color="#150015" stop-opacity=".9"/>
      <stop offset=".2" stop-color="rgba(18, 0, 18, .8)" stop-opacity=".8"/>
      <stop offset=".6" stop-color="rgba(4, 0, 4, .2)" stop-opacity=".2"/>
      <stop offset="1" stop-color="#000" stop-opacity="0"/>
    </radialGradient>
    <filter id="drop-shadow-2" filterUnits="userSpaceOnUse">
      <feOffset dx="0" dy="0"/>
      <feGaussianBlur result="blur" stdDeviation="40"/>
      <feFlood flood-color="#1b0027" flood-opacity=".8"/>
      <feComposite in2="blur" operator="in"/>
      <feComposite in="SourceGraphic"/>
    </filter>
    <radialGradient id="radial-gradient-2" cx="612.9" cy="911" fx="612.9" fy="911" r="513.3" gradientTransform="translate(0 632.6) scale(1 .4)" gradientUnits="userSpaceOnUse">
      <stop offset="0" stop-color="#150015"/>
      <stop offset=".3" stop-color="rgba(21, 0, 23, 1)" stop-opacity="1"/>
      <stop offset=".4" stop-color="rgba(24, 0, 32, .9)" stop-opacity=".9"/>
      <stop offset=".5" stop-color="#1b0027" stop-opacity=".9"/>
      <stop offset=".7" stop-color="rgba(19, 0, 28, .6)" stop-opacity=".6"/>
      <stop offset="1" stop-color="#000" stop-opacity="0"/>
    </radialGradient>
    <radialGradient id="radial-gradient-3" cx="649.9" cy="983.1" fx="649.9" fy="983.1" r="30.3" gradientUnits="userSpaceOnUse">
      <stop offset="0" stop-color="#f06"/>
      <stop offset=".2" stop-color="#f00560"/>
      <stop offset=".4" stop-color="#c81253"/>
      <stop offset=".8" stop-color="#89273e"/>
      <stop offset="1" stop-color="#6e3135"/>
    </radialGradient>
    <filter id="luminosity-invert" x="616" y="952.1" width="68" height="62" color-interpolation-filters="sRGB" filterUnits="userSpaceOnUse">
      <feColorMatrix result="cm" values="-1 0 0 0 1 0 -1 0 0 1 0 0 -1 0 1 0 0 0 1 0"/>
    </filter>
    <mask id="mask" x="616" y="952.1" width="68" height="62" maskUnits="userSpaceOnUse">
      <g class="cls-49">
        <image width="68" height="62" transform="translate(616 952.1)" xlink:href="titilegshadow-1.png"/>
      </g>
    </mask>
    <linearGradient id="linear-gradient-7" x1="650.1" y1="944.6" x2="650.1" y2="1010.5" gradientUnits="userSpaceOnUse">
      <stop offset="0" stop-color="#e6e6e6"/>
      <stop offset=".3" stop-color="#ababab"/>
      <stop offset="1" stop-color="#333"/>
    </linearGradient>
    <filter id="drop-shadow-3" filterUnits="userSpaceOnUse">
      <feOffset dx="4" dy="4"/>
      <feGaussianBlur result="blur-2" stdDeviation="6"/>
      <feFlood flood-color="#000" flood-opacity="1"/>
      <feComposite in2="blur-2" operator="in"/>
      <feComposite in="SourceGraphic"/>
    </filter>
    <linearGradient id="linear-gradient-8" x1="649.9" y1="942.1" x2="649.9" y2="1012.5" xlink:href="#linear-gradient-7"/>
    <linearGradient id="linear-gradient-9" x1="276.8" y1="624" x2="276.8" y2="1187.8" gradientUnits="userSpaceOnUse">
      <stop offset="0" stop-color="#e6e6e6"/>
      <stop offset=".1" stop-color="#d9d9d9"/>
      <stop offset=".3" stop-color="#b9b9b9"/>
      <stop offset=".6" stop-color="#858585"/>
      <stop offset="1" stop-color="#3d3d3d"/>
      <stop offset="1" stop-color="#333"/>
    </linearGradient>
    <linearGradient id="linear-gradient-10" x1="403.5" y1="740.8" x2="403.5" y2="1139.5" xlink:href="#linear-gradient-9"/>
    <linearGradient id="linear-gradient-11" x1="524" y1="737.9" x2="524" y2="1141.4" xlink:href="#linear-gradient-9"/>
    <linearGradient id="linear-gradient-12" x1="652.5" y1="739.1" x2="652.5" y2="1140.6" xlink:href="#linear-gradient-9"/>
    <linearGradient id="linear-gradient-13" x1="758.6" y1="744.5" x2="758.6" y2="1133.4" xlink:href="#linear-gradient-9"/>
    <linearGradient id="linear-gradient-14" x1="833" y1="647.1" x2="833" y2="1178.9" xlink:href="#linear-gradient-9"/>
    <linearGradient id="linear-gradient-15" x1="898.8" y1="843.4" x2="898.8" y2="912.3" xlink:href="#linear-gradient-9"/>
    <linearGradient id="linear-gradient-16" x1="897.1" y1="740" x2="897.1" y2="1135.2" xlink:href="#linear-gradient-9"/>
    <filter id="drop-shadow-4" filterUnits="userSpaceOnUse">
      <feOffset dx="2" dy="3"/>
      <feGaussianBlur result="blur-3" stdDeviation="4"/>
      <feFlood flood-color="#000" flood-opacity="1"/>
      <feComposite in2="blur-3" operator="in"/>
      <feComposite in="SourceGraphic"/>
    </filter>
    <linearGradient id="linear-gradient-17" x1="383.2" y1="777.8" x2="383.2" y2="960.6" xlink:href="#linear-gradient-9"/>
    <linearGradient id="linear-gradient-18" x1="420.9" y1="777.8" x2="420.9" y2="960.6" xlink:href="#linear-gradient-9"/>
    <linearGradient id="linear-gradient-19" x1="458.1" y1="777.8" x2="458.1" y2="960.6" xlink:href="#linear-gradient-9"/>
    <linearGradient id="linear-gradient-20" x1="497" y1="777.8" x2="497" y2="960.6" xlink:href="#linear-gradient-9"/>
    <linearGradient id="linear-gradient-21" x1="536.3" y1="777.8" x2="536.3" y2="960.6" xlink:href="#linear-gradient-9"/>
    <linearGradient id="linear-gradient-22" x1="573.8" y1="777.8" x2="573.8" y2="960.6" xlink:href="#linear-gradient-9"/>
    <linearGradient id="linear-gradient-23" x1="602.2" y1="777.8" x2="602.2" y2="960.6" xlink:href="#linear-gradient-9"/>
    <linearGradient id="linear-gradient-24" x1="630.2" y1="777.8" x2="630.2" y2="960.6" xlink:href="#linear-gradient-9"/>
    <linearGradient id="linear-gradient-25" x1="664.3" y1="777.8" x2="664.3" y2="960.6" xlink:href="#linear-gradient-9"/>
    <linearGradient id="linear-gradient-26" x1="722.4" y1="777.8" x2="722.4" y2="960.6" xlink:href="#linear-gradient-9"/>
    <linearGradient id="linear-gradient-27" x1="755.1" y1="777.8" x2="755.1" y2="960.6" xlink:href="#linear-gradient-9"/>
    <linearGradient id="linear-gradient-28" x1="794.1" y1="777.8" x2="794.1" y2="960.6" xlink:href="#linear-gradient-9"/>
    <linearGradient id="linear-gradient-29" x1="822.6" y1="777.8" x2="822.6" y2="960.6" xlink:href="#linear-gradient-9"/>
    <linearGradient id="linear-gradient-30" x1="860.4" y1="777.8" x2="860.4" y2="960.6" xlink:href="#linear-gradient-9"/>
  </defs>
  <g class="cls-45">
    <g id="Layer_1" data-name="Layer 1">
      <g>
        <g>
          <g class="cls-45">
            <text class="cls-46" transform="translate(412.5 152.2)"><tspan x="0" y="0">PAWSOME</tspan></text>
          </g>
          <g class="cls-45">
            <text class="cls-46" transform="translate(269.1 253.3)"><tspan x="0" y="0">meowterspace</tspan></text>
          </g>
        </g>
        <g>
          <g>
            <path class="cls-6" d="M1071,899.4l.8,1s65.2-148.5-75.6-202.3c0,0-.3-.6,0,0,0,0,0,0,0,0,0,0,0,0,0,0-22.6-7.8-48.4-1.3-48.4-1.3-22,5.6-36.1,18.2-42.2,24.3-21.3,15.6-47.2,30.7-78,42.3-135.5,50.9-265-5.6-304.1-24.5,14.4,10.9,195.6,146.1,293.4,151.7,13.8.8,28.7,1.7,47.2-3.8,53-15.7,55.9-59.6,99.4-68.5,28.8-5.9,60,6.8,79.7,26,21,20.4,26.2,45.4,27.7,55.1Z"/>
            <path class="cls-16" d="M996.1,697.9c1,.5,19.8,9.7,21.9,29,1.8,16.8-9.7,33.9-28.2,39.6,14.6,9.7,41.7,30.6,61.3,67.1,14.1,26.3,18.9,50.8,20.7,66.6,7.9-24.4,23.6-82,4.6-129.8-3.8-9.5-8.2-16.9-9-18-20.7-33.9-53.9-48.5-71.3-54.5Z"/>
          </g>
          <g>
            <g id="Cat_2" data-name="Cat 2" class="cls-48">
              <path class="cls-26" d="M883.8,488.5c0,.3,0,.6,0,.8v83.8c0,6.8,4.6,12.7,11.1,14.5h0c1.3.8,3.4,2.1,5.4,4.3,25.9,28.3-15.1,133.8-90.9,176.4-19,10.7-36.6,15.4-47.8,17.7h-279.2c-10.5-3.3-27.1-9.6-45.3-20.9-87-54.2-104.1-158.5-94.1-168.8.5-.5,8.7-8.7,8.7-8.7h0l.8-.4c4.8-2.6,7.9-7.7,7.9-13.2v-84.7c0-8.7,1.8-17,5-24.5,2.4-33.3,14.1-65.9,33.7-92.8,12.2-16.7,32.1-32.5,51.6-25.7,11.1,3.9,18.6,14.2,24.9,24.2,11.5,18.1,21.8,36.9,30.8,56.4h236.1c9-19.4,19.3-38.3,30.8-56.4,6.3-10,13.8-20.3,24.9-24.2,19.5-6.8,39.4,9,51.6,25.7,24.3,33.4,36.4,75.4,33.9,116.5Z"/>
              <g>
                <path class="cls-1" d="M578.7,647.6c3.6,5.6,9.3,9.7,15.8,11.3s13.5.6,19.3-2.7,6.2-4.5,8.4-7.7l-1,.6h1.9c-.3-.2-.7-.4-1-.6,3.9,5.5,9.9,9.4,16.6,10.7s13.4-.1,19-3.7,5.9-4.8,8-7.9-1.2-2.5-2.1-1.2c-3.5,5.5-9.3,9.3-15.7,10.5s-13.3-.5-18.6-4.3-2.6-2.1-3.7-3.4-1.4-2.4-2.7-2.4-2-.2-2.6.5c-1.1,1.2-2,2.5-3.2,3.6-4.8,4.5-11.6,7-18.2,6.4s-14.2-4.8-18.1-10.9-2.9,0-2.1,1.2h0Z"/>
                <ellipse class="cls-9" cx="503.2" cy="558.6" rx="67.4" ry="58.6"/>
                <ellipse class="cls-9" cx="741.3" cy="558.6" rx="67.4" ry="58.6"/>
                <g>
                  <ellipse class="cls-23" cx="514" cy="558.6" rx="47.2" ry="45.1"/>
                  <path class="cls-9" d="M550.8,557c-14.9-14.9-22.5-14.9-37.4,0,14.9-14.9,14.9-22.5,0-37.4,14.9,14.9,22.5,14.9,37.4,0-14.9,14.9-14.9,22.5,0,37.4Z"/>
                </g>
                <g>
                  <ellipse class="cls-11" cx="730.4" cy="558.6" rx="47.2" ry="45.1"/>
                  <path class="cls-9" d="M767.2,557c-14.9-14.9-22.5-14.9-37.4,0,14.9-14.9,14.9-22.5,0-37.4,14.9,14.9,22.5,14.9,37.4,0-14.9,14.9-14.9,22.5,0,37.4Z"/>
                </g>
              </g>
            </g>
            <path class="cls-28" d="M836.1,832.5c-3.7-26.5-20.1-43.1-25.8-48.4,0-.8,0-5.3-3.8-9-2.4-2.3-5.6-3.8-9.2-3.8-58.6,0-117.1,0-175.7,0h0c-.2,0-.3,0-.5,0-.2,0-.3,0-.5,0h0c-58.6,0-117.1,0-175.7,0-3.6,0-6.8,1.5-9.2,3.8-3.8,3.6-3.8,8.1-3.8,9-5.7,5.3-22.1,22-25.8,48.4-5.7,40,22.3,68.3,25.8,71.6,0,6.9,5.8,12.6,12.9,12.6h352.6c7.1,0,12.9-5.7,12.9-12.6,3.5-3.3,31.5-31.6,25.8-71.6Z"/>
            <path class="cls-15" d="M622.1,198.1c-181.7,0-329,147.3-329,329s52.2,204,132.7,264c64.5-2.4,327.9-.8,391.6.7,81.1-59.9,133.6-156.1,133.6-264.7,0-181.7-147.3-329-329-329Z"/>
            <g class="cls-52">
              <path class="cls-31" d="M812.8,441.4c-27.8,23.7-78.9,6-106.6-12.7-32.4-21.8-67.6-68.6-52.7-103.7,16.6-39.4,92-55,137.9-21.5,45.9,33.5,53.9,110.2,21.5,137.9Z"/>
            </g>
            <path class="cls-43" d="M817.4,791.7c81.1-59.9,133.6-156.1,133.6-264.7,0-181.7-147.3-329-329-329s-329,147.3-329,329,52.2,204,132.7,264"/>
            <path class="cls-17" d="M425.8,791c64.5-2.4,327.9-.8,391.6.7"/>
            <circle class="cls-2" cx="721.6" cy="369" r="98.7"/>
            <g class="cls-52">
              <path class="cls-13" d="M626,321.6c-5.8,4.9-16.4,1.2-22.1-2.6-6.7-4.5-14-14.2-11-21.6,3.5-8.2,19.1-11.4,28.6-4.5,9.5,7,11.2,22.9,4.5,28.6Z"/>
            </g>
          </g>
        </g>
      </g>
      <ellipse class="cls-37" cx="630.1" cy="942.5" rx="477.9" ry="158.5"/>
      <ellipse class="cls-7" cx="612.9" cy="956.7" rx="677.2" ry="204.2"/>
      <g>
        <g>
          <g>
            <path class="cls-42" d="M681.8,981.8c.7,16.6-13.8,30-31.7,30s-32-12.1-32-28.6c0-16.6,13.8-29.1,32-28.6,21.4.5,31,11.4,31.7,27.3Z"/>
            <g class="cls-51">
              <g class="cls-50">
                <path class="cls-8" d="M681.8,981.8c.7,16.6-13.8,30-31.7,30s-32-12.1-32-28.6c0-16.6,13.8-29.1,32-28.6,21.4.5,31,11.4,31.7,27.3Z"/>
              </g>
            </g>
          </g>
          <ellipse class="cls-27" cx="650.1" cy="982.1" rx="9" ry="9.3"/>
        </g>
        <g class="cls-47">
          <ellipse class="cls-32" cx="649.9" cy="982.1" rx="9.6" ry="9.9"/>
          <path class="cls-29" d="M303.4,948.6c-6.8,0-12.8,1.9-18,5.7-5.2,3.8-7.9,8.8-7.9,14.9s1.5,9.5,4.4,12.6c2.9,3.1,6.7,4.7,11.3,4.7s6.1-.9,8.7-2.7c2.6-1.8,3.9-3.9,3.9-6.1v-1.3c0-.4-.4-.5-.9-.2-.7.2-1.4.5-2.3.8-.9.3-1.7.5-2.5.6-2.1,0-3.8-.5-5.1-1.5-1.6-1.3-2.4-3.5-2.4-6.4s1.4-6.5,4.1-8.6c2.8-2.1,6.4-3.2,10.9-3.2,6.9,0,12.4,2.6,16.5,7.9,4.2,5.3,6.3,12.1,6.3,20.4s-2.4,14.2-7.3,18.9c-4.5,4.4-10.1,6.5-16.8,6.5s-11.1-1.1-17.5-3.4c-13.4-4.8-22.6-7.2-27.7-7.2s-10.1,1.1-15.7,3.2c-4.4,1.7-8.6,3.8-12.4,6.3,5.2-4.9,9.4-10.7,12.8-17.5s6.9-18.9,6.9-29.2v-87.6c0-1.4,1.2-3,3.5-4.8,2.9-2.2,4.4-3.4,4.6-3.7.3-.4.4-.8.4-1.2,0-.8-.7-1.2-2-1.2s-2.1.1-5.2.3c-3.1.2-6.1.3-9,.3s-4.1-.1-7.8-.4c-3.7-.3-5.9-.3-6.7-.3-1,0-1.6.3-1.7.9s0,1,.2,1.3c1.6,1.3,3.2,2.6,4.9,3.9,2.2,1.8,3.3,3.4,3.3,4.8v97.8c0,6.9-1.5,13.4-4.4,19.3-3.5,7.1-8.9,13.1-15.9,17.9-.5.4-.8.8-.8,1s.3.4,1,.6c1.8.5,2.8.8,3.2,1,1.5.6,2.8,1.4,4,2.4,1.2,1,2.2,2.1,2.9,3.2.4.7,1,1.5,1.5,2.4.4.4.7.7.9.7s.7-.3,1.3-.9c2.1-2.7,4.8-4.8,8.1-6.1,3.3-1.4,7.6-2,12.9-2s14.2,2.4,28.4,7.2c6.3,2.1,12.2,3.2,17.6,3.2,11.1,0,20.5-3.7,28.1-11,7.6-7.4,11.3-16.5,11.3-27.3s-3.2-19.2-9.7-26.2c-6.5-7.1-14.6-10.6-24.4-10.6Z"/>
          <path class="cls-40" d="M452.3,1010.7c-3.8-2.4-6.2-4.2-7.2-5.4-3.2-3.6-4.8-8.5-4.8-14.7v-65.3c0-1.4,1-3,3-4.6,1-.9,2.4-2,4.1-3.3.4-.4.7-.9.7-1.4,0-1-.7-1.4-2-1.4-2.2.2-4.1.4-5.8.5-1.7.1-4,.2-7,.2s-2.7-.1-6.2-.3c-3.5-.2-5.6-.3-6.4-.3-1.5,0-2.2.4-2.2,1.3s.2.9.7,1.3c1.4,1.3,2.8,2.5,4.3,3.7,1.8,1.7,2.8,3.2,2.8,4.5v67.7c-2.1,5.3-6.1,9.8-11.9,13.6-5.8,3.8-11.8,5.6-18,5.6-9.1,0-16.3-3.8-21.7-11.4-5.4-7.6-8.1-17.3-8.1-29.1s2.1-20.6,6.3-30.9c3.5-8.7,8.6-17.3,15.2-25.8.3-.3.6-.8.8-1.5.2-.7.2-1.2-.1-1.6-.2-.4-.5-.6-.8-.6s-.6.1-1.2.3c-2.3,1.3-4.6,2.5-7,3.8-2.4,1.3-4.9,2.4-7.6,3.4-2.7,1-5.2,1.8-7.5,2.3-1.3.3-2.6.6-3.8.9-1.2.3-1.8.7-1.8,1.2s.3.9.9,1.1l4,2c2.5,1,4.2,1.8,5.1,2.4,1.4,1,1.9,1.8,1.5,2.7-4.1,7.2-6.7,11.8-7.7,13.8-2.8,5.5-4.9,10.9-6.3,16-1.7,6.1-2.5,12.6-2.5,19.5,0,11.8,3.2,21.6,9.5,29.3,7.3,8.9,17.7,13.4,31.2,13.4s14.5-2.6,21.2-7.9c5.2-4.1,9.1-8.7,11.5-13.8,0,4.6,1.8,9.1,5.4,13.5,2.5,3,5.2,5.5,8.1,7.3.6.4,1.1.6,1.5.6s.8-.3,1.1-.8c.8-1,1.3-1.7,1.4-1.9.7-.9,1.6-1.8,2.5-2.8,1-1,1.8-1.7,2.5-2.3,1.7-1.3,2.6-2.1,2.8-2.3.2-.4.3-.7.3-1,0-.7-.3-1.1-.8-1.4Z"/>
          <path class="cls-14" d="M573.8,952.3c0-9.7-2.8-18.6-8.5-26.5-7.2-10-17.4-15-30.7-15s-14.2,2.9-21.1,8.7c-4.6,3.9-8.6,8.5-11.8,13.8-.7-3.8-3-8.4-7.1-13.6-3-3.8-5.8-6.8-8.4-9-.2-.2-.6-.3-1-.3s-.9.2-1.2.6c-.5.7-1.1,1.3-1.7,2-.6.7-1.4,1.5-2.4,2.5-1,1-1.9,1.8-2.5,2.4-.7.6-1.5,1.3-2.4,2.2-.4.4-.7.9-.7,1.4s.3.9.9,1.2c4.1,2.1,6.9,4.1,8.5,5.7,3.8,3.9,5.6,9,5.6,15.3v65.4c0,1.3-1.3,2.9-3.8,4.9-1.5,1.2-2.5,2.2-3.2,2.9s-1,1.4-1,1.9c0,.8.9,1.2,2.7,1.2,2.1-.1,4.1-.3,5.7-.4,1.7-.1,3.9-.2,6.7-.2s5.1.1,8.1.3,4.6.3,5,.3c1.3,0,1.9-.4,1.9-1.1s-.4-1.4-1.2-2.2c-1.4-1.1-2.8-2.3-4.3-3.5-1.6-1.4-2.5-2.8-2.5-4.1v-67.9c2.9-5.5,6.5-9.8,11-12.9,4.9-3.5,10.5-5.2,16.7-5.2,9.2,0,16.5,3.8,21.9,11.4,5.2,7.2,7.7,16.6,7.7,28.2s-1,13.9-3.1,20.7c-1.7,5.5-4.3,11.5-7.7,17.9-2.2,4.1-5.3,9.2-9.3,15.4-.2.4-.3.8-.3,1.3,0,1.7,1.1,2.4,3.2,2,2.1-.3,3.7-.5,5-.6,1.3,0,3,0,5.1,0,3.2,0,5.5.1,7,.3,1.5.2,3.1.6,4.8,1.3.9.4,2.4,1.2,4.6,2.4.4.3.7.4,1.1.4.9,0,1.2-.7.9-2.2-.1-1.3-.3-2.6-.3-3.8,0-1.2-.1-2.4-.1-3.5s0-1.5.2-3.1c.1-1.5.3-2.9.4-4,.4-1.3.1-2-.7-2s-.2,0-.4.1c-.3,0-.5.2-.7.3-.6.4-1.8,1.4-3.8,3-1.9,1.3-3.9,2-5.9,2.3-2,.3-4.1.4-6.4.4s-1.7,0-2.3,0c-.6,0-.9,0-1.2,0,7.5-8.5,13.2-17.7,17-27.7,3.8-10,5.8-20.5,5.8-31.4Z"/>
          <path class="cls-3" d="M698.5,1014.2c-1-1.8-1.7-3.6-2.1-5.5-.8-3.8-1.8-10.9-3-21.2-1.2-10.3-2.4-18.4-3.8-24.3-2.1-9.3-4.8-17.1-8.3-23.3-4.9-8.9-11.4-16-19.4-21.2-8-5.2-16-7.8-24.2-7.8s-15.5,1.5-21.4,4.6c-6.7,3.5-10.1,8.5-10.1,14.8s1.4,8.7,4.2,11.6c2.8,2.9,6.3,4.3,10.6,4.3s6.8-1.2,9.6-3.5c2.8-2.3,4.1-5.2,4.1-8.7s-.8-4.1-2.5-5.8c-1.7-1.7-3.6-2.7-5.6-2.9-.8,0-1.3,0-1.4.1-.3.1-.3.5-.1,1,.2.7.5,1.6.7,2.5.3.9.4,1.9.4,2.8s-.6,2.5-1.7,3.4c-1.1,1-2.4,1.4-3.9,1.4-2.1,0-3.8-.8-5-2.3s-1.8-3.5-1.8-5.9c0-4.1,2-7.4,6.1-9.7,3.5-2.1,7.8-3.1,12.7-3.1,8,0,15.7,3.1,23.2,9.3,6,4.9,11.2,11.1,15.6,18.7,3.8,6.4,5.6,11.3,5.6,14.5-2.8-3.2-6.9-6-12.2-8.3-5.3-2.3-10.9-3.4-16.8-3.4-12,0-22.4,3.7-31,11.1-9,7.7-13.5,17.2-13.5,28.5s4.1,20.5,12.4,27.6c7.8,6.7,17.4,10.1,28.8,10.1s15.7-2.5,23.1-7.4c6.6-4.5,11.4-9.8,14.3-15.8l.7,10.6c0,1.3-.2,2.5-.6,3.6-.4,1.1-.9,2.1-1.6,3-.4.5-.6.9-.6,1.2,0,.8.8,1.2,2.5,1.2s1.3-.1,2.9-.3c1.6-.2,3.1-.3,4.4-.3,1.9,0,3.9.1,6.1.3,2.1.2,3.4.3,3.7.3,1.1,0,1.7-.4,1.7-1.1s-.3-1-.8-1.8c-.3-.4-1-1.5-2.1-3.1ZM672.9,1003.4c-5.9,5.6-13.8,8.4-23.6,8.4s-15.8-2.9-22-8.6c-6.2-5.7-9.2-12.7-9.2-21.1s3-14.4,9.1-19.7c6-5.3,13.1-8,21.2-8s18,2.5,24.2,7.5c6.2,5,9.2,11.6,9.2,20s-3,16-8.9,21.5Z"/>
          <path class="cls-18" d="M794.4,915.6c-3.7-3.1-8.9-4.7-15.4-4.7s-14.5,2.4-20.8,7.2c-5.4,4.1-9.4,9.3-12.2,15.4-.7-4.7-3.2-9.3-7.6-13.8-2-2.1-5.1-4.5-9.2-7.4-.4-.2-.7-.3-1-.3-.5,0-1,.3-1.4.8-.7,1-1.2,1.7-1.4,1.9-.7.9-1.6,1.8-2.5,2.8l-5.1,4.9c-.3.3-.4.7-.4,1.1s.1.6.4.7c6,2.7,10,5.1,11.8,7.3,2.7,3.3,4.1,7.5,4.1,12.6v65.4c0,1.4-1.1,3-3.4,4.9-.7.5-1.7,1.4-3,2.5-.9.9-1.3,1.7-1.3,2.4s.8,1.2,2.4,1.2c2.1-.1,4-.3,5.7-.4,1.7-.1,3.9-.2,6.7-.2s4.5.2,9.1.6c.9,0,2,.1,3.3.1s2.4-.5,2.4-1.4-.4-1.3-1.1-2c-1.4-1.1-2.8-2.3-4.2-3.5-1.6-1.4-2.4-2.8-2.4-4.1v-67.9c2.4-5.8,5.9-10.8,10.4-14.9,5.1-4.6,10.3-7,15.5-7s7.3.8,9.5,2.5c1.9,1.5,2.9,3.4,2.9,5.9s-.6,3.8-1.9,5.2c-.9,1-1.9,1.6-3,2-1.1.4-2.4.6-3.7.6s-.8.2-1,.6c-.1.4-.1.7.1,1,.6,1.3,1.9,2.4,3.8,3.1,2,.7,4.3,1.1,7,1.1s6.9-1.3,9.2-4c2.3-2.7,3.4-6.1,3.4-10.4s-1.9-8.3-5.6-11.5Z"/>
          <path class="cls-25" d="M854,914.4c-2.6.1-5.1.3-7.4.3-2.4,0-4.8.1-7.2.1v-18.4c0-4.9.2-9.7.7-14.4.2-1.9.4-3.8.7-5.8,0-1.1-.3-1.7-.9-1.7s-.7.2-.9.6c-1.3,1.5-2.5,3.1-3.8,4.8-1.3,1.6-3.1,3.7-5.5,6.1-2.1,2.1-3.9,3.9-5.6,5.5-1.7,1.6-3.4,3.1-5,4.5-.4.4-.7.9-.7,1.3,0,1,.5,1.5,1.5,1.5.4,0,1.3.2,2.5.3,1.8.5,2.8,2.9,2.8,7.2v8.4c-2.4,0-5.1,0-8-.2s-4.5-.2-4.9-.2c-1.3,0-2,.6-2,1.8v3.5c0,1.2.5,1.8,1.5,1.8,2.2,0,4.4-.2,6.5-.3,2.1-.1,4.4-.2,6.7-.2v72.1c0,8.3,1.7,15.5,5.1,21.5,2.4,4.3,5.2,7.3,8.4,9.1.5.3,1,.4,1.5.4s1.2-.3,1.8-.9c.6-.8,1.9-2.1,4-4,.5-.4,1.3-1,2.2-1.8.7-.4,1.4-.9,2-1.3.6-.4.9-.8.9-1.2,0-.6-.3-1.1-.9-1.5-3.5-2.9-5.6-4.8-6.4-5.9-3-3.7-4.4-8.2-4.4-13.4v-73.3c2.9,0,5.9,0,9.2.2,3.2.1,5.1.2,5.4.2,1,0,1.5-.6,1.5-1.8v-3.8c0-1-.5-1.5-1.5-1.5Z"/>
          <path class="cls-12" d="M898.6,892.3c2.7,0,5-.9,7-2.7,1.9-1.8,2.9-4,2.9-6.6s-.9-5-2.8-7c-1.8-2-4.1-3-6.7-3s-5,.9-6.9,2.8c-2,1.9-3,4.1-3,6.8s.9,5,2.8,6.9c1.8,1.9,4.1,2.9,6.7,2.9Z"/>
          <path class="cls-21" d="M907,1013.3c-1.5-1.4-2.3-2.7-2.3-3.9v-76.9c0-5.2.2-9.6.5-13.4.3-3.8.7-6.5,1.1-8.1.4-1.3,0-2-1-2s-.6.2-1.1.6c-.5.4-1.8,1.3-3.7,2.7-2,1.4-4.7,3.2-8.1,5.4-1.4.9-3.4,2-5.9,3.3-1.7.9-2.9,1.6-3.6,2.1-.7.5-1.1,1-1.1,1.4s.4,1,1.3,1.3,2.5.8,4.8,1.7c1.8,1.3,2.7,3.7,2.7,7.4v74.3c0,1.3-.8,2.6-2.5,4.1-.9.8-2.3,2-4.1,3.5-.7.9-1.1,1.6-1.1,2,0,.9.9,1.4,2.7,1.4,2.1-.1,4-.3,5.7-.4,1.7-.1,3.8-.2,6.5-.2s4.5.2,9.1.6c.9,0,2,.1,3.3.1s2.4-.4,2.4-1.3-.4-1.3-1.3-2.2c-1.4-1.1-2.8-2.2-4.1-3.4Z"/>
          <path class="cls-41" d="M1035.5,988.3c-.7-.4-1.8,1.7-7.1,6.1,0,0-3.9,3.2-7.7,5.7-7.9,5.1-17.5,5.4-21.2,5.5-4.4.1-15.8.3-27.5-6.9-2.1-1.3-11.9-7.6-17.9-20.3-4.5-9.7-4.5-18.2-4.5-24.4,0-4.9,0-12.7,3.6-22,1-2.6,6.7-17.3,22-27.3,9-5.9,16.4-6.9,18.6-7.2,3-.3,7.8-.7,12.8,1.6,1.8.9,3.1,2.1,5.3,3.6,5.6,3.9,8.6,9.1,8.6,15.8s-1.2,8.4-3.5,11.5c-2.3,3.2-5.3,4.6-9.1,4.6s-5.1-.7-7.2-2.2c-2.1-1.5-3.3-3.5-3.8-6.3v-2.2c0-1.5.2-3,.7-4.6,0-.7.5-1.9.8-3,.2-.7,0-1.3-.3-1.9-.3-.6-1.2-.6-2-.2-1.5.8-4.1,2.5-6.3,5.6-.7.9-2.1,3.2-2.9,6.4-.1.5-.6,2.3-.6,4.6,0,6.1,2.1,11,6.6,15.1,4.1,3.7,8.9,5.6,14.5,5.6s12.2-2.8,16.6-8.2c4.4-5.4,6.7-12.3,6.7-20.3s-3.8-17.3-11.4-23.4c-6.9-5.6-15.1-8.4-24.5-8.4-16.3,0-30.1,6.7-41.8,20.3-11.7,13.6-17.4,29.4-17.4,47.6s5.1,37.2,15.3,48.9c10,11.5,23.5,17.3,40.5,17.3s10.5,0,18.3-3c3.4-1.3,8.5-3.3,13.5-8,10.8-10.2,13.8-25.2,12.1-26Z"/>
        </g>
      </g>
      <g class="cls-44">
        <path class="cls-4" d="M400.3,862.4c-.8,3.4-2.9,6.1-6.2,8-2.9,1.7-6.3,2.5-10.1,2.5s-3.2-.3-4.9-1c-1.4-.5-2.9-1.1-4.6-1.7-1.7,1.2-2.6,2.7-2.6,4.3s.2,1.5.7,1.8c.4.3.8.6,1.2.9.1.3.2,1.5.2,3.4-3.5-.1-5.3-1.6-5.3-4.5s1-4,3.1-8.2c-.6-.8-1.7-2.3-3.2-4.5-1.7-2.6-2.6-6.3-2.6-10.8s1.7-10.2,5.1-14.1c3.5-4.1,8-6.2,13.5-6.2s7.7,1.3,12.1,3.9l-18.5,28.5c2.1,2.1,5.1,3.2,9,3.2s4.2-.3,5.5-.8c.6-.3,2.1-1.2,4.3-2.8,1-.7,2.1-1.4,3.4-1.9ZM388.7,840.1c0-1.5-.8-2.7-2.5-3.7-1.4-.8-2.9-1.3-4.4-1.3-3.1,0-5.9,1.7-8.3,5.2-2.1,3.1-3.2,6.4-3.2,9.6,0,4.8,1.6,8.8,4.9,12,2.5-2.5,5.1-6,7.7-10.3,2.5-4.2,4.5-8,5.8-11.5Z"/>
        <path class="cls-35" d="M438.1,849.9c0,3.6-.9,7.3-2.7,11.1l-2.6,5.5c.3.6.8,1.3,1.6,2,1.1,1,1.7,1.7,1.9,1.9l-5.4,2.2c-1.9.7-3.8,1.2-5.5,1.3l5.4-10.4c1.7-3.9,2.6-7.8,2.6-11.4s-.9-7-2.8-9.9c-2.1-3.3-4.9-5-8.4-5s-5.5,1.3-7.4,3.9c-1.7,2.3-2.6,5.1-2.6,8.2v17.7c0,1.5.2,2.6.5,3.2.3.6,1.2,1.3,2.6,2.3-1.7.5-4,.7-7,.7s-3.5-.2-4.6-.4c2.1-2.6,3.1-4.7,3.1-6.3v-18.8c0-3.9-.5-6.7-1.4-8.5-.4-.5-1-1.4-1.7-2.5.2-.6.7-1.4,1.3-2.1.6-.8,1.2-1.2,1.8-1.2.9,0,2.9,1.8,5.9,5.5,3.9-4,7.6-6.1,11.1-6.1s8.3,1.7,10.9,5.2c2.3,3.1,3.4,7.1,3.4,11.9Z"/>
        <path class="cls-5" d="M475.1,861.4c-1.5,3.3-3.8,6-6.7,8.1-3,2.2-6.3,3.3-9.9,3.3-5.3,0-9.6-2.1-12.9-6.3-3-3.9-4.6-8.6-4.6-14s1.9-10.2,5.6-14.6c3.9-4.5,8.6-6.8,13.8-6.8s5.6.9,7.9,2.8c2.5,2,3.8,4.4,3.8,7.3s-.8,4.7-2.3,6.1c-1.5,1.4-3.6,2.2-6.2,2.2s-3.5-.5-4.7-1.6c-1.2-1.1-1.8-2.6-1.8-4.5s.2-2.5.6-3.1c.3-.4,1.3-.9,2.8-1.6,0,.3.2,1,.5,2.3.5,2.1,1.7,3.1,3.5,3.1s1.8-.4,2.5-1.3c.6-.9,1-1.8,1-2.8,0-1.7-.7-3.2-2.2-4.5-1.5-1.2-3.1-1.8-4.8-1.8-4,0-7.5,1.7-10.6,5-3.1,3.3-4.7,7-4.7,11s1.4,8.4,4.3,12c3.1,3.8,6.8,5.7,11,5.7s3.7-.5,5.3-1.4c1-.7,2.6-1.7,4.7-3,1-.6,2.3-1.1,3.9-1.6Z"/>
        <path class="cls-24" d="M516.4,852c0,5.6-1.9,10.4-5.8,14.6-3.9,4.1-8.6,6.2-14.1,6.2s-10.1-2.1-13.8-6.3c-3.4-4-5.2-8.9-5.2-14.5s2-10.1,6-14.2c4-4.1,8.7-6.1,14-6.1s9.9,2.1,13.6,6.2c3.5,3.9,5.3,8.7,5.3,14.1ZM512.2,855.3c0-4.5-1.8-8.8-5.5-12.9-3.8-4.2-7.9-6.4-12.3-6.4s-5.5,1.3-8.1,3.9-4,5.3-4,8.1c0,4.3,1.7,8.7,5.1,13.2,3.6,4.7,7.5,7.1,11.6,7.1s6.3-1.4,9.1-4.1c2.8-2.7,4.1-5.7,4.1-9Z"/>
        <path class="cls-10" d="M553.9,867.7c-1.2,2.8-2.4,4.2-3.6,4.2s-2-.7-3.3-2c-1.7-1.7-2.7-2.7-3.1-2.9-.8.4-1.8,1.2-3,2.5s-2.1,2.1-2.8,2.5c-1.4.7-3.4,1.1-5.8,1.1-4,0-7.3-1.8-9.9-5.4-2.4-3.3-3.7-7-3.7-11.1s.8-5.8,2.3-9.8c1.2-3.1,2.7-6.2,4.5-9.1-1.1-.3-2-.5-2.5-.5s-.9,0-1.6.1c-.7.1-1.3.2-1.6.2v-4.9c2.4.1,6.1.4,11,.7-.2.6-1.8,3.7-4.7,9.3-1.8,3.5-2.7,6.9-2.7,10.2s.9,7.3,2.8,10.2c2.1,3.3,5.1,5,8.8,5s4.5-.9,6.3-2.8c1.7-1.8,2.6-4,2.6-6.4v-20.9c0-.8-.9-2.5-2.6-4.9h10c-1,1.1-1.7,2.1-2.1,2.9-.4,1.1-.7,6.6-.7,16.4s.2,7,.6,8.6c.7,3.1,2.3,5.3,4.8,6.7Z"/>
        <path class="cls-22" d="M591.1,849.9c0,3.6-.9,7.3-2.7,11.1l-2.6,5.5c.3.6.8,1.3,1.6,2,1.1,1,1.7,1.7,1.9,1.9l-5.4,2.2c-1.9.7-3.8,1.2-5.5,1.3l5.4-10.4c1.7-3.9,2.6-7.8,2.6-11.4s-.9-7-2.8-9.9c-2.1-3.3-4.9-5-8.4-5s-5.5,1.3-7.4,3.9c-1.7,2.3-2.6,5.1-2.6,8.2v17.7c0,1.5.2,2.6.5,3.2.3.6,1.2,1.3,2.6,2.3-1.7.5-4,.7-7,.7s-3.5-.2-4.6-.4c2.1-2.6,3.1-4.7,3.1-6.3v-18.8c0-3.9-.5-6.7-1.4-8.5-.4-.5-1-1.4-1.7-2.5.2-.6.7-1.4,1.3-2.1.6-.8,1.2-1.2,1.8-1.2.9,0,2.9,1.8,5.9,5.5,3.9-4,7.6-6.1,11.1-6.1s8.3,1.7,10.9,5.2c2.3,3.1,3.4,7.1,3.4,11.9Z"/>
        <path class="cls-19" d="M609.6,835h-4.1v28.1c0,2,1.2,4,3.7,6-1.7,2.5-3.1,3.8-4.2,3.8s-1.2-.5-2.1-1.6c-2.2-2.6-3.3-6.8-3.3-12.6v-22.6c-1-.6-1.9-1-2.7-1.3-.2,0-.9.5-1.9,1.3v-2.8c1.7,0,2.7-.2,3.2-.4.9-.4,1.4-1.4,1.4-2.8s-.5-2-1.6-3.8l7-7.7c0,.5.1,2.7.1,6.6v6.2c0,.8.6,1.3,1.8,1.5h2.7v2.2Z"/>
        <path class="cls-33" d="M647.3,862.4c-.8,3.4-2.9,6.1-6.2,8-2.9,1.7-6.3,2.5-10.1,2.5s-3.2-.3-4.9-1c-1.4-.5-2.9-1.1-4.6-1.7-1.7,1.2-2.6,2.7-2.6,4.3s.2,1.5.7,1.8c.4.3.8.6,1.2.9.1.3.2,1.5.2,3.4-3.5-.1-5.3-1.6-5.3-4.5s1-4,3.1-8.2c-.6-.8-1.7-2.3-3.2-4.5-1.7-2.6-2.6-6.3-2.6-10.8s1.7-10.2,5.1-14.1c3.5-4.1,8-6.2,13.5-6.2s7.7,1.3,12.1,3.9l-18.5,28.5c2.1,2.1,5.1,3.2,9,3.2s4.2-.3,5.5-.8c.6-.3,2.1-1.2,4.3-2.8,1-.7,2.1-1.4,3.4-1.9ZM635.7,840.1c0-1.5-.8-2.7-2.5-3.7-1.4-.8-2.9-1.3-4.4-1.3-3.1,0-5.9,1.7-8.3,5.2-2.1,3.1-3.2,6.4-3.2,9.6,0,4.8,1.6,8.8,4.9,12,2.5-2.5,5.1-6,7.7-10.3,2.5-4.2,4.5-8,5.8-11.5Z"/>
        <path class="cls-20" d="M678.7,838c0,1.5-.4,2.8-1.2,3.9-.8,1-2,1.6-3.5,1.6s-2.3-.5-3.7-1.6c.7-.5,1.7-1.4,3.1-2.5,0-.2.1-.5.1-.9,0-1.8-1.4-2.7-4.3-2.7s-4.4,1.1-6.2,3.4c-1.8,2.3-2.8,4.6-2.8,7v16.5c0,3.3.9,6.4,2.6,9.4-.9.4-2.6.7-5,.7s-3.5-.2-5-.7c1.9-2,2.8-4.9,2.8-8.5,0-13.3-.9-21.2-2.8-23.9-.2-.3-.8-.8-1.7-1.6-.9-.8-1.4-1.3-1.4-1.6.2-.6.8-1.4,1.6-2.4.8-.9,1.5-1.4,2-1.4,1,0,2.3.7,3.7,2.2.1.2,1.1,1.4,2.9,3.7,1.1-1,2.8-2.5,5.1-4.5,1.6-1.4,3.7-2,6.2-2s3.6.5,5,1.5c1.6,1.1,2.4,2.6,2.4,4.5Z"/>
        <path class="cls-34" d="M741.8,852c0,5.6-1.9,10.4-5.8,14.6-3.9,4.1-8.6,6.2-14.1,6.2s-10.1-2.1-13.8-6.3c-3.4-4-5.2-8.9-5.2-14.5s2-10.1,6-14.2c4-4.1,8.7-6.1,14-6.1s9.9,2.1,13.6,6.2c3.5,3.9,5.3,8.7,5.3,14.1ZM737.6,855.3c0-4.5-1.8-8.8-5.5-12.9-3.8-4.2-7.9-6.4-12.3-6.4s-5.5,1.3-8.1,3.9c-2.6,2.6-4,5.3-4,8.1,0,4.3,1.7,8.7,5.1,13.2,3.6,4.7,7.5,7.1,11.6,7.1s6.3-1.4,9.1-4.1c2.8-2.7,4.1-5.7,4.1-9Z"/>
        <path class="cls-30" d="M766,820.6c0,.9-.5,1.9-1.4,2.9-.9,1-1.9,1.5-2.8,1.5s-1.7-.5-2.3-1.4c-.6-.9-.9-1.9-.9-2.9s.2-.6.5-.6,1.1.2,3.1.6c0-1.2-.1-2.1-.4-2.6-.3-.5-1-.7-2.2-.7-2.5,0-3.7,2.5-3.7,7.4,0,7.3.7,10.9,2.2,10.8h1.5c.9,0,1.7.6,2.2,1.7-1.5.5-3.1.7-4.7.6-.3.2-.5,1.7-.5,4.3v30.7c0,3.9-1,7.8-3,11.6-2.3,4.4-5.2,6.8-8.7,7.1-.1-.7-.4-1.7-.7-3.1.2-.6.4-1.3.7-1.9,2.7-1.8,4.4-3.2,5.2-4.3,1.1-1.6,1.7-3.8,1.7-6.7v-36.7c-1.3-.7-3-1.1-5.1-1.1s-1.7-.5-2.6-1.6c.9-.3,2.6-.4,5-.4s2.2-1.7,2.3-5.2c.2-4.8.6-8,1.1-9.6,1.2-3.4,4-5.1,8.2-5.1s2.6.5,3.7,1.4c1,.9,1.6,2.1,1.6,3.5Z"/>
        <path class="cls-39" d="M801.4,835h-4.1v28.1c0,2,1.2,4,3.7,6-1.7,2.5-3.1,3.8-4.2,3.8s-1.2-.5-2.1-1.6c-2.2-2.6-3.3-6.8-3.3-12.6v-22.6c-1-.6-1.9-1-2.7-1.3-.2,0-.9.5-1.9,1.3v-2.8c1.7,0,2.7-.2,3.2-.4.9-.4,1.4-1.4,1.4-2.8s-.5-2-1.6-3.8l7-7.7c0,.5.1,2.7.1,6.6v6.2c0,.8.6,1.3,1.8,1.5h2.7v2.2Z"/>
        <path class="cls-38" d="M839.9,873.5c-5.6-.5-9.5-.7-11.7-.5,4.3-8.5,6.4-15.6,6.4-21.3s-.8-6.9-2.4-9.6c-1.9-3.1-4.6-4.7-8.2-4.7s-4.3.8-6.4,2.4c-2.2,1.7-3.3,3.7-3.2,5.8l.3,22.4c0,1.7.9,3.3,2.7,4.9h-10.1c1.4-1.5,2.2-2.8,2.2-3.8l-.3-45c-1.6,0-3,0-4.2,0,1-1.6,2.4-3.4,4-5.2,2-2.3,3.6-3.6,4.9-4v24.5c1.1-.9,2.9-2.3,5.2-4.1,2.5-1.9,5.1-2.9,7.6-2.9,4.3,0,7.6,1.7,9.8,5.2,1.9,3,2.9,6.7,2.9,11.2s-.7,6.4-2,9.9c-.8,2.1-2.1,5.2-3.8,9.4.3.1.5.4.7.7l5.3-1.3c0,2.2,0,4.2.3,6.1Z"/>
        <path class="cls-36" d="M877.6,862.4c-.8,3.4-2.9,6.1-6.2,8-2.9,1.7-6.3,2.5-10.1,2.5s-3.2-.3-4.9-1c-1.4-.5-2.9-1.1-4.6-1.7-1.7,1.2-2.6,2.7-2.6,4.3s.2,1.5.7,1.8c.4.3.8.6,1.2.9.1.3.2,1.5.2,3.4-3.5-.1-5.3-1.6-5.3-4.5s1-4,3.1-8.2c-.6-.8-1.7-2.3-3.2-4.5-1.7-2.6-2.6-6.3-2.6-10.8s1.7-10.2,5.1-14.1c3.5-4.1,8-6.2,13.5-6.2s7.7,1.3,12.1,3.9l-18.5,28.5c2.1,2.1,5.1,3.2,9,3.2s4.2-.3,5.5-.8c.6-.3,2.1-1.2,4.3-2.8,1-.7,2.1-1.4,3.4-1.9ZM866,840.1c0-1.5-.8-2.7-2.5-3.7-1.4-.8-2.9-1.3-4.4-1.3-3.1,0-5.9,1.7-8.3,5.2-2.1,3.1-3.2,6.4-3.2,9.6,0,4.8,1.6,8.8,4.9,12,2.5-2.5,5.1-6,7.7-10.3,2.5-4.2,4.5-8,5.8-11.5Z"/>
      </g>
    </g>
  </g>
</svg>