<?xml version="1.0" encoding="UTF-8"?>
<svg xmlns="http://www.w3.org/2000/svg" version="1.1" xmlns:xlink="http://www.w3.org/1999/xlink" viewBox="0 0 1252 1309.5">
  <defs>
    <style>
      .cls-1 {
        fill: #f7931e;
      }

      .cls-1, .cls-2, .cls-3, .cls-4, .cls-5, .cls-6, .cls-7, .cls-8, .cls-9, .cls-10, .cls-11, .cls-12, .cls-13, .cls-14, .cls-15, .cls-16, .cls-17, .cls-18, .cls-19 {
        stroke-width: 0px;
      }

      .cls-2 {
        opacity: .4;
      }

      .cls-2, .cls-9, .cls-20 {
        fill: none;
      }

      .cls-3 {
        fill: url(#linear-gradient);
      }

      .cls-21 {
        filter: url(#outer-glow-3);
      }

      .cls-4 {
        fill: #f2f2f2;
      }

      .cls-22, .cls-23 {
        isolation: isolate;
      }

      .cls-23 {
        fill: #ffc45e;
        font-family: PaindeMie-Regular, 'Pain de Mie';
        font-size: 136.5px;
      }

      .cls-5 {
        fill: url(#Medium_Spectrum_-2);
      }

      .cls-6 {
        fill: url(#linear-gradient-6);
      }

      .cls-6, .cls-16 {
        mix-blend-mode: color-dodge;
      }

      .cls-24 {
        opacity: .3;
      }

      .cls-7 {
        fill: url(#linear-gradient-4);
        opacity: .4;
      }

      .cls-8 {
        fill: #ffa750;
      }

      .cls-25 {
        filter: url(#outer-glow-1);
      }

      .cls-9 {
        opacity: .2;
      }

      .cls-10 {
        fill: url(#Medium_Spectrum_);
      }

      .cls-11 {
        fill: url(#linear-gradient-2);
      }

      .cls-12 {
        fill: url(#radial-gradient-2);
      }

      .cls-13 {
        fill: url(#linear-gradient-3);
      }

      .cls-14 {
        fill: url(#radial-gradient-5);
      }

      .cls-15 {
        fill: url(#radial-gradient);
      }

      .cls-20 {
        opacity: .6;
        stroke: #fff;
        stroke-miterlimit: 10;
        stroke-opacity: .6;
        stroke-width: 16px;
      }

      .cls-16 {
        fill: url(#linear-gradient-5);
      }

      .cls-26 {
        mix-blend-mode: screen;
        opacity: .5;
      }

      .cls-17 {
        fill: #fff;
      }

      .cls-18 {
        fill: url(#radial-gradient-3);
      }

      .cls-27 {
        opacity: .8;
      }

      .cls-28 {
        filter: url(#outer-glow-2);
      }

      .cls-19 {
        fill: url(#radial-gradient-4);
      }
    </style>
    <linearGradient id="linear-gradient" x1="578.2" y1="625.1" x2="1069.2" y2="908.6" gradientTransform="translate(-81.7 93) rotate(-6.4)" gradientUnits="userSpaceOnUse">
      <stop offset=".1" stop-color="#953d00" stop-opacity="0"/>
      <stop offset=".2" stop-color="rgba(149, 61, 0, .1)" stop-opacity=".1"/>
      <stop offset=".3" stop-color="rgba(149, 61, 0, .4)" stop-opacity=".4"/>
      <stop offset=".5" stop-color="rgba(149, 61, 0, 1)" stop-opacity="1"/>
      <stop offset=".5" stop-color="#953d00"/>
      <stop offset=".7" stop-color="#bc6916"/>
      <stop offset="1" stop-color="#fbb03b"/>
    </linearGradient>
    <filter id="outer-glow-1">
      <feOffset dx="0" dy="0"/>
      <feGaussianBlur result="blur" stdDeviation="9"/>
      <feFlood flood-color="#fff" flood-opacity=".4"/>
      <feComposite in2="blur" operator="in"/>
      <feComposite in="SourceGraphic"/>
    </filter>
    <linearGradient id="linear-gradient-2" x1="624.3" y1="323.2" x2="624.3" y2="951.4" gradientUnits="userSpaceOnUse">
      <stop offset="0" stop-color="#333"/>
      <stop offset="1" stop-color="#000"/>
    </linearGradient>
    <linearGradient id="Medium_Spectrum_" data-name="Medium Spectrum " x1="514" y1="494.4" x2="514" y2="736.7" gradientUnits="userSpaceOnUse">
      <stop offset="0" stop-color="#71caee"/>
      <stop offset=".2" stop-color="#8881b8"/>
      <stop offset=".4" stop-color="#ec98ba"/>
      <stop offset=".6" stop-color="#ee9579"/>
      <stop offset=".8" stop-color="#fcf099"/>
      <stop offset="1" stop-color="#83c59b"/>
    </linearGradient>
    <linearGradient id="Medium_Spectrum_-2" data-name="Medium Spectrum " x1="730.4" y1="494.4" x2="730.4" y2="736.7" xlink:href="#Medium_Spectrum_"/>
    <linearGradient id="linear-gradient-3" x1="621.2" y1="941.6" x2="621.2" y2="791.1" gradientUnits="userSpaceOnUse">
      <stop offset=".3" stop-color="#953d00" stop-opacity="0"/>
      <stop offset=".4" stop-color="rgba(149, 61, 0, .1)" stop-opacity=".1"/>
      <stop offset=".4" stop-color="rgba(149, 61, 0, .4)" stop-opacity=".4"/>
      <stop offset=".5" stop-color="rgba(149, 61, 0, 1)" stop-opacity="1"/>
      <stop offset=".5" stop-color="#953d00"/>
      <stop offset=".7" stop-color="#bc6916"/>
      <stop offset="1" stop-color="#fbb03b"/>
    </linearGradient>
    <linearGradient id="linear-gradient-4" x1="622.1" y1="786.8" x2="622.1" y2="251" gradientUnits="userSpaceOnUse">
      <stop offset="0" stop-color="#fff"/>
      <stop offset="1" stop-color="#000"/>
    </linearGradient>
    <linearGradient id="linear-gradient-5" x1="742.9" y1="360" x2="420.3" y2="37.4" gradientTransform="translate(387.6 -147.1) rotate(36.1)" gradientUnits="userSpaceOnUse">
      <stop offset="0" stop-color="#fff"/>
      <stop offset="1" stop-color="#000"/>
    </linearGradient>
    <linearGradient id="linear-gradient-6" x1="479.9" y1="266.1" x2="412.9" y2="199.1" gradientTransform="translate(387.6 -147.1) rotate(36.1)" xlink:href="#linear-gradient-4"/>
    <filter id="outer-glow-2" filterUnits="userSpaceOnUse">
      <feOffset dx="0" dy="0"/>
      <feGaussianBlur result="blur" stdDeviation="22"/>
      <feFlood flood-color="#fff" flood-opacity="1"/>
      <feComposite in2="blur" operator="in"/>
      <feComposite in="SourceGraphic"/>
    </filter>
    <radialGradient id="radial-gradient" cx="271.3" cy="879.9" fx="271.3" fy="879.9" r="16.8" gradientUnits="userSpaceOnUse">
      <stop offset="0" stop-color="#fff" stop-opacity=".7"/>
      <stop offset="0" stop-color="rgba(255, 255, 255, .7)" stop-opacity=".7"/>
      <stop offset=".1" stop-color="rgba(255, 255, 255, .5)" stop-opacity=".5"/>
      <stop offset=".3" stop-color="rgba(255, 255, 255, .3)" stop-opacity=".3"/>
      <stop offset=".4" stop-color="rgba(255, 255, 255, .2)" stop-opacity=".2"/>
      <stop offset=".5" stop-color="rgba(255, 255, 255, .1)" stop-opacity=".1"/>
      <stop offset=".7" stop-color="rgba(255, 255, 255, 0)" stop-opacity="0"/>
      <stop offset=".8" stop-color="rgba(255, 255, 255, 0)" stop-opacity="0"/>
      <stop offset="1" stop-color="#fff" stop-opacity="0"/>
    </radialGradient>
    <radialGradient id="radial-gradient-2" cx="243.3" cy="906.8" fx="243.3" fy="906.8" r="12.9" gradientTransform="translate(328.4 -39.5) rotate(17.9)" xlink:href="#radial-gradient"/>
    <radialGradient id="radial-gradient-3" cx="1029.7" cy="1011.2" fx="1029.7" fy="1011.2" r="19.1" xlink:href="#radial-gradient"/>
    <radialGradient id="radial-gradient-4" cx="906.7" cy="868.9" fx="906.7" fy="868.9" r="12.3" xlink:href="#radial-gradient"/>
    <radialGradient id="radial-gradient-5" cx="1002.9" cy="768.2" fx="1002.9" fy="768.2" r="9.6" gradientTransform="translate(328.4 -39.5) rotate(17.9)" gradientUnits="userSpaceOnUse">
      <stop offset="0" stop-color="#fff" stop-opacity=".7"/>
      <stop offset="0" stop-color="rgba(255, 255, 255, .7)" stop-opacity=".7"/>
      <stop offset=".2" stop-color="rgba(255, 255, 255, .5)" stop-opacity=".5"/>
      <stop offset=".4" stop-color="rgba(255, 255, 255, .3)" stop-opacity=".3"/>
      <stop offset=".6" stop-color="rgba(255, 255, 255, .2)" stop-opacity=".2"/>
      <stop offset=".7" stop-color="rgba(255, 255, 255, 0)" stop-opacity="0"/>
      <stop offset=".9" stop-color="rgba(255, 255, 255, 0)" stop-opacity="0"/>
      <stop offset="1" stop-color="#fff" stop-opacity="0"/>
    </radialGradient>
    <filter id="outer-glow-3" filterUnits="userSpaceOnUse">
      <feOffset dx="0" dy="0"/>
      <feGaussianBlur result="blur-2" stdDeviation="6"/>
      <feFlood flood-color="#fff" flood-opacity=".6"/>
      <feComposite in2="blur-2" operator="in"/>
      <feComposite in="SourceGraphic"/>
    </filter>
  </defs>
  <g class="cls-22">
    <g id="Layer_1" data-name="Layer 1">
      <g>
        <g>
          <g class="cls-22">
            <text class="cls-23" transform="translate(412.5 152.2)"><tspan x="0" y="0">PAWSOME</tspan></text>
          </g>
          <g class="cls-22">
            <text class="cls-23" transform="translate(269.1 253.3)"><tspan x="0" y="0">meowterspace</tspan></text>
          </g>
        </g>
        <g>
          <g>
            <path class="cls-3" d="M1071,899.4l.8,1s65.2-148.5-75.6-202.3c0,0-.3-.6,0,0,0,0,0,0,0,0,0,0,0,0,0,0-22.6-7.8-48.4-1.3-48.4-1.3-22,5.6-36.1,18.2-42.2,24.3-21.3,15.6-47.2,30.7-78,42.3-135.5,50.9-265-5.6-304.1-24.5,14.4,10.9,195.6,146.1,293.4,151.7,13.8.8,28.7,1.7,47.2-3.8,53-15.7,55.9-59.6,99.4-68.5,28.8-5.9,60,6.8,79.7,26,21,20.4,26.2,45.4,27.7,55.1Z"/>
            <path class="cls-8" d="M996.1,697.9c1,.5,19.8,9.7,21.9,29,1.8,16.8-9.7,33.9-28.2,39.6,14.6,9.7,41.7,30.6,61.3,67.1,14.1,26.3,18.9,50.8,20.7,66.6,7.9-24.4,23.6-82,4.6-129.8-3.8-9.5-8.2-16.9-9-18-20.7-33.9-53.9-48.5-71.3-54.5Z"/>
          </g>
          <g>
            <g id="Cat_2" data-name="Cat 2" class="cls-25">
              <path class="cls-11" d="M883.8,488.5c0,.3,0,.6,0,.8v83.8c0,6.8,4.6,12.7,11.1,14.5h0c1.3.8,3.4,2.1,5.4,4.3,25.9,28.3-15.1,133.8-90.9,176.4-19,10.7-36.6,15.4-47.8,17.7h-279.2c-10.5-3.3-27.1-9.6-45.3-20.9-87-54.2-104.1-158.5-94.1-168.8.5-.5,8.7-8.7,8.7-8.7h0l.8-.4c4.8-2.6,7.9-7.7,7.9-13.2v-84.7c0-8.7,1.8-17,5-24.5,2.4-33.3,14.1-65.9,33.7-92.8,12.2-16.7,32.1-32.5,51.6-25.7,11.1,3.9,18.6,14.2,24.9,24.2,11.5,18.1,21.8,36.9,30.8,56.4h236.1c9-19.4,19.3-38.3,30.8-56.4,6.3-10,13.8-20.3,24.9-24.2,19.5-6.8,39.4,9,51.6,25.7,24.3,33.4,36.4,75.4,33.9,116.5Z"/>
              <g>
                <path class="cls-1" d="M578.7,647.6c3.6,5.6,9.3,9.7,15.8,11.3s13.5.6,19.3-2.7,6.2-4.5,8.4-7.7l-1,.6h1.9c-.3-.2-.7-.4-1-.6,3.9,5.5,9.9,9.4,16.6,10.7s13.4-.1,19-3.7,5.9-4.8,8-7.9-1.2-2.5-2.1-1.2c-3.5,5.5-9.3,9.3-15.7,10.5s-13.3-.5-18.6-4.3-2.6-2.1-3.7-3.4-1.4-2.4-2.7-2.4-2-.2-2.6.5c-1.1,1.2-2,2.5-3.2,3.6-4.8,4.5-11.6,7-18.2,6.4s-14.2-4.8-18.1-10.9-2.9,0-2.1,1.2h0Z"/>
                <ellipse class="cls-4" cx="503.2" cy="558.6" rx="67.4" ry="58.6"/>
                <ellipse class="cls-4" cx="741.3" cy="558.6" rx="67.4" ry="58.6"/>
                <g>
                  <ellipse class="cls-10" cx="514" cy="558.6" rx="47.2" ry="45.1"/>
                  <path class="cls-4" d="M550.8,557c-14.9-14.9-22.5-14.9-37.4,0,14.9-14.9,14.9-22.5,0-37.4,14.9,14.9,22.5,14.9,37.4,0-14.9,14.9-14.9,22.5,0,37.4Z"/>
                </g>
                <g>
                  <ellipse class="cls-5" cx="730.4" cy="558.6" rx="47.2" ry="45.1"/>
                  <path class="cls-4" d="M767.2,557c-14.9-14.9-22.5-14.9-37.4,0,14.9-14.9,14.9-22.5,0-37.4,14.9,14.9,22.5,14.9,37.4,0-14.9,14.9-14.9,22.5,0,37.4Z"/>
                </g>
              </g>
            </g>
            <path class="cls-13" d="M836.1,832.5c-3.7-26.5-20.1-43.1-25.8-48.4,0-.8,0-5.3-3.8-9-2.4-2.3-5.6-3.8-9.2-3.8-58.6,0-117.1,0-175.7,0h0c-.2,0-.3,0-.5,0-.2,0-.3,0-.5,0h0c-58.6,0-117.1,0-175.7,0-3.6,0-6.8,1.5-9.2,3.8-3.8,3.6-3.8,8.1-3.8,9-5.7,5.3-22.1,22-25.8,48.4-5.7,40,22.3,68.3,25.8,71.6,0,6.9,5.8,12.6,12.9,12.6h352.6c7.1,0,12.9-5.7,12.9-12.6,3.5-3.3,31.5-31.6,25.8-71.6Z"/>
            <path class="cls-7" d="M622.1,198.1c-181.7,0-329,147.3-329,329s52.2,204,132.7,264c64.5-2.4,327.9-.8,391.6.7,81.1-59.9,133.6-156.1,133.6-264.7,0-181.7-147.3-329-329-329Z"/>
            <g class="cls-27">
              <path class="cls-16" d="M812.8,441.4c-27.8,23.7-78.9,6-106.6-12.7-32.4-21.8-67.6-68.6-52.7-103.7,16.6-39.4,92-55,137.9-21.5,45.9,33.5,53.9,110.2,21.5,137.9Z"/>
            </g>
            <path class="cls-20" d="M817.4,791.7c81.1-59.9,133.6-156.1,133.6-264.7,0-181.7-147.3-329-329-329s-329,147.3-329,329,52.2,204,132.7,264"/>
            <path class="cls-9" d="M425.8,791c64.5-2.4,327.9-.8,391.6.7"/>
            <circle class="cls-2" cx="721.6" cy="369" r="98.7"/>
            <g class="cls-27">
              <path class="cls-6" d="M626,321.6c-5.8,4.9-16.4,1.2-22.1-2.6-6.7-4.5-14-14.2-11-21.6,3.5-8.2,19.1-11.4,28.6-4.5,9.5,7,11.2,22.9,4.5,28.6Z"/>
            </g>
          </g>
        </g>
        <g>
          <g class="cls-28">
            <path class="cls-17" d="M400.3,862.7c-.8,3.4-2.9,6.1-6.2,8-2.9,1.7-6.3,2.5-10.1,2.5s-3.2-.3-4.9-1c-1.4-.5-2.9-1.1-4.6-1.7-1.7,1.2-2.6,2.7-2.6,4.3s.2,1.5.7,1.8c.4.3.8.6,1.2.9.1.3.2,1.5.2,3.4-3.5,0-5.3-1.6-5.3-4.5s1-4,3.1-8.2c-.6-.8-1.7-2.3-3.2-4.5-1.7-2.6-2.6-6.3-2.6-10.8s1.7-10.2,5.1-14.1c3.5-4.1,8-6.2,13.5-6.2s7.7,1.3,12.1,3.9l-18.5,28.5c2.1,2.1,5.1,3.2,9,3.2s4.2-.3,5.5-.8c.6-.3,2.1-1.2,4.3-2.8,1-.7,2.1-1.4,3.4-1.9ZM388.7,840.3c0-1.5-.8-2.7-2.5-3.7-1.4-.8-2.9-1.3-4.4-1.3-3.1,0-5.9,1.7-8.3,5.2-2.1,3.1-3.2,6.4-3.2,9.6,0,4.8,1.6,8.8,4.9,12,2.5-2.5,5.1-6,7.7-10.3,2.5-4.2,4.5-8,5.8-11.5Z"/>
            <path class="cls-17" d="M438.1,850.1c0,3.6-.9,7.3-2.7,11.1l-2.6,5.5c.3.6.8,1.3,1.6,2,1.1,1,1.7,1.7,1.9,1.9l-5.4,2.2c-1.9.7-3.8,1.2-5.5,1.3l5.4-10.4c1.7-3.9,2.6-7.8,2.6-11.4s-.9-7-2.8-9.9c-2.1-3.3-4.9-5-8.4-5s-5.5,1.3-7.4,3.9c-1.7,2.3-2.6,5.1-2.6,8.2v17.7c0,1.5.2,2.6.5,3.2.3.6,1.2,1.3,2.6,2.3-1.7.5-4,.7-7,.7s-3.5-.1-4.6-.4c2.1-2.6,3.1-4.7,3.1-6.3v-18.8c0-3.9-.5-6.7-1.4-8.5-.4-.5-1-1.4-1.7-2.5.2-.6.7-1.4,1.3-2.1.6-.8,1.2-1.2,1.8-1.2.9,0,2.9,1.8,5.9,5.5,3.9-4,7.6-6.1,11.1-6.1s8.3,1.7,10.9,5.2c2.3,3.1,3.4,7.1,3.4,11.9Z"/>
            <path class="cls-17" d="M475.1,861.7c-1.5,3.3-3.8,6-6.7,8.1-3,2.2-6.3,3.3-9.9,3.3-5.3,0-9.6-2.1-12.9-6.3-3-3.9-4.6-8.6-4.6-14s1.9-10.2,5.6-14.6c3.9-4.5,8.6-6.8,13.8-6.8s5.6.9,7.9,2.8c2.5,2,3.8,4.4,3.8,7.3s-.8,4.7-2.3,6.1c-1.5,1.4-3.6,2.2-6.2,2.2s-3.5-.5-4.7-1.6c-1.2-1.1-1.8-2.6-1.8-4.5s.2-2.5.6-3.1c.3-.4,1.3-.9,2.8-1.6,0,.3.2,1,.5,2.3.5,2.1,1.7,3.1,3.5,3.1s1.8-.4,2.5-1.3c.6-.9,1-1.8,1-2.8,0-1.7-.7-3.2-2.2-4.5-1.5-1.2-3.1-1.8-4.8-1.8-4,0-7.5,1.7-10.6,5-3.1,3.3-4.7,7-4.7,11s1.4,8.4,4.3,12c3.1,3.8,6.8,5.7,11,5.7s3.7-.5,5.3-1.4c1-.7,2.6-1.7,4.7-3,1-.6,2.3-1.1,3.9-1.6Z"/>
            <path class="cls-17" d="M516.4,852.3c0,5.6-1.9,10.4-5.8,14.6-3.9,4.1-8.6,6.2-14.1,6.2s-10.1-2.1-13.8-6.3c-3.4-4-5.2-8.9-5.2-14.5s2-10.1,6-14.2c4-4.1,8.7-6.1,14-6.1s9.9,2.1,13.6,6.2c3.5,3.9,5.3,8.7,5.3,14.1ZM512.2,855.6c0-4.5-1.8-8.8-5.5-12.9-3.8-4.2-7.9-6.4-12.3-6.4s-5.5,1.3-8.1,3.9c-2.6,2.6-4,5.3-4,8.1,0,4.3,1.7,8.7,5.1,13.2,3.6,4.7,7.5,7.1,11.6,7.1s6.3-1.4,9.1-4.1,4.1-5.7,4.1-9Z"/>
            <path class="cls-17" d="M553.9,867.9c-1.2,2.8-2.4,4.2-3.6,4.2s-2-.7-3.3-2c-1.7-1.7-2.7-2.7-3.1-2.9-.8.4-1.8,1.2-3,2.5-1.1,1.2-2.1,2.1-2.8,2.5-1.4.7-3.4,1.1-5.8,1.1-4,0-7.3-1.8-9.9-5.4-2.4-3.3-3.7-7-3.7-11.1s.8-5.8,2.3-9.8c1.2-3.1,2.7-6.2,4.5-9.1-1.1-.3-2-.5-2.5-.5s-.9,0-1.6.1c-.7.1-1.3.1-1.6.1v-4.9c2.4.1,6.1.4,11,.7-.3.6-1.8,3.7-4.7,9.3-1.8,3.5-2.7,6.9-2.7,10.2s.9,7.3,2.8,10.2c2.1,3.3,5.1,5,8.8,5s4.5-.9,6.3-2.8,2.6-4,2.6-6.4v-20.9c0-.8-.9-2.5-2.6-4.9h10c-1,1.1-1.7,2.1-2.1,2.9-.4,1.1-.7,6.6-.7,16.4s.2,7,.6,8.6c.7,3.1,2.3,5.3,4.8,6.7Z"/>
            <path class="cls-17" d="M591.1,850.1c0,3.6-.9,7.3-2.7,11.1l-2.6,5.5c.3.6.8,1.3,1.6,2,1.1,1,1.7,1.7,1.9,1.9l-5.4,2.2c-1.9.7-3.8,1.2-5.5,1.3l5.4-10.4c1.7-3.9,2.6-7.8,2.6-11.4s-.9-7-2.8-9.9c-2.1-3.3-4.9-5-8.4-5s-5.5,1.3-7.4,3.9c-1.7,2.3-2.6,5.1-2.6,8.2v17.7c0,1.5.2,2.6.5,3.2.3.6,1.2,1.3,2.6,2.3-1.7.5-4,.7-7,.7s-3.5-.1-4.6-.4c2.1-2.6,3.1-4.7,3.1-6.3v-18.8c0-3.9-.5-6.7-1.4-8.5-.4-.5-1-1.4-1.7-2.5.2-.6.7-1.4,1.3-2.1.6-.8,1.2-1.2,1.8-1.2.9,0,2.9,1.8,5.9,5.5,3.9-4,7.6-6.1,11.1-6.1s8.3,1.7,10.9,5.2c2.3,3.1,3.4,7.1,3.4,11.9Z"/>
            <path class="cls-17" d="M609.6,835.3h-4.1v28.1c0,2,1.2,4,3.7,6-1.7,2.5-3.1,3.8-4.2,3.8s-1.2-.5-2.1-1.6c-2.2-2.6-3.3-6.8-3.3-12.6v-22.6c-1-.6-1.9-1-2.7-1.3-.2,0-.9.5-1.9,1.3v-2.8c1.7,0,2.7-.2,3.2-.4.9-.4,1.4-1.4,1.4-2.8s-.5-2-1.6-3.8l7-7.7c0,.5.1,2.7.1,6.6v6.2c0,.8.6,1.3,1.8,1.5h2.7v2.2Z"/>
            <path class="cls-17" d="M647.3,862.7c-.8,3.4-2.9,6.1-6.2,8-2.9,1.7-6.3,2.5-10.1,2.5s-3.2-.3-4.9-1c-1.4-.5-2.9-1.1-4.6-1.7-1.7,1.2-2.6,2.7-2.6,4.3s.2,1.5.7,1.8c.4.3.8.6,1.2.9.1.3.2,1.5.2,3.4-3.5,0-5.3-1.6-5.3-4.5s1-4,3.1-8.2c-.6-.8-1.7-2.3-3.2-4.5-1.7-2.6-2.6-6.3-2.6-10.8s1.7-10.2,5.1-14.1c3.5-4.1,8-6.2,13.5-6.2s7.7,1.3,12.1,3.9l-18.5,28.5c2.1,2.1,5.1,3.2,9,3.2s4.2-.3,5.5-.8c.6-.3,2.1-1.2,4.3-2.8,1-.7,2.1-1.4,3.4-1.9ZM635.7,840.3c0-1.5-.8-2.7-2.5-3.7-1.4-.8-2.9-1.3-4.4-1.3-3.1,0-5.9,1.7-8.3,5.2-2.1,3.1-3.2,6.4-3.2,9.6,0,4.8,1.6,8.8,4.9,12,2.5-2.5,5.1-6,7.7-10.3,2.5-4.2,4.5-8,5.8-11.5Z"/>
            <path class="cls-17" d="M678.7,838.3c0,1.5-.4,2.8-1.2,3.9-.8,1-2,1.6-3.5,1.6s-2.3-.5-3.7-1.6c.7-.5,1.7-1.4,3.1-2.5,0-.2.1-.5.1-.9,0-1.8-1.4-2.7-4.3-2.7s-4.4,1.1-6.2,3.4c-1.8,2.3-2.8,4.6-2.8,7v16.5c0,3.3.9,6.4,2.6,9.4-.9.5-2.6.7-5,.7s-3.5-.2-5-.7c1.9-2,2.8-4.9,2.8-8.5,0-13.3-.9-21.2-2.8-23.9-.2-.3-.8-.8-1.7-1.6-.9-.8-1.4-1.3-1.4-1.6.2-.6.8-1.4,1.6-2.4.8-.9,1.5-1.4,2-1.4,1,0,2.3.7,3.7,2.2.1.2,1.1,1.4,2.9,3.7,1.1-1,2.8-2.5,5.1-4.5,1.6-1.4,3.7-2,6.2-2s3.6.5,5,1.5c1.6,1.1,2.4,2.6,2.4,4.5Z"/>
            <path class="cls-17" d="M741.8,852.3c0,5.6-1.9,10.4-5.8,14.6-3.9,4.1-8.6,6.2-14.1,6.2s-10.1-2.1-13.8-6.3c-3.4-4-5.2-8.9-5.2-14.5s2-10.1,6-14.2c4-4.1,8.7-6.1,14-6.1s9.9,2.1,13.6,6.2c3.5,3.9,5.3,8.7,5.3,14.1ZM737.6,855.6c0-4.5-1.8-8.8-5.5-12.9-3.8-4.2-7.9-6.4-12.3-6.4s-5.5,1.3-8.1,3.9c-2.6,2.6-4,5.3-4,8.1,0,4.3,1.7,8.7,5.1,13.2,3.6,4.7,7.5,7.1,11.6,7.1s6.3-1.4,9.1-4.1c2.8-2.7,4.1-5.7,4.1-9Z"/>
            <path class="cls-17" d="M766,820.9c0,.9-.5,1.9-1.4,2.9-.9,1-1.9,1.5-2.8,1.5s-1.7-.5-2.3-1.4c-.6-.9-.9-1.9-.9-2.9s.2-.6.5-.6,1.1.2,3.1.6c0-1.2-.2-2.1-.4-2.6s-1-.7-2.2-.7c-2.5,0-3.7,2.5-3.7,7.4,0,7.3.7,10.9,2.2,10.8h1.5c.9,0,1.7.6,2.2,1.7-1.5.5-3.1.7-4.7.6-.3.3-.5,1.7-.5,4.3v30.7c0,3.9-1,7.8-3,11.6-2.3,4.4-5.2,6.8-8.7,7.1-.1-.7-.4-1.7-.7-3.1.2-.6.4-1.3.7-1.9,2.7-1.8,4.4-3.2,5.2-4.3,1.1-1.6,1.7-3.8,1.7-6.7v-36.7c-1.3-.7-3-1.1-5.1-1.1s-1.7-.5-2.6-1.6c.9-.3,2.6-.4,5-.4s2.2-1.7,2.3-5.2c.2-4.8.6-8,1.1-9.6,1.2-3.4,4-5.1,8.2-5.1s2.6.5,3.7,1.4c1,.9,1.6,2.1,1.6,3.5Z"/>
            <path class="cls-17" d="M801.4,835.3h-4.1v28.1c0,2,1.2,4,3.7,6-1.7,2.5-3.1,3.8-4.2,3.8s-1.2-.5-2.1-1.6c-2.2-2.6-3.3-6.8-3.3-12.6v-22.6c-1-.6-1.9-1-2.7-1.3-.2,0-.9.5-1.9,1.3v-2.8c1.7,0,2.7-.2,3.2-.4.9-.4,1.4-1.4,1.4-2.8s-.5-2-1.6-3.8l7-7.7c0,.5.1,2.7.1,6.6v6.2c0,.8.6,1.3,1.8,1.5h2.7v2.2Z"/>
            <path class="cls-17" d="M839.9,873.8c-5.6-.5-9.5-.7-11.7-.5,4.3-8.5,6.4-15.6,6.4-21.3s-.8-6.9-2.4-9.6c-1.9-3.1-4.6-4.7-8.2-4.7s-4.3.8-6.4,2.4c-2.2,1.7-3.3,3.7-3.2,5.8l.3,22.4c0,1.7.9,3.3,2.7,4.9h-10.1c1.4-1.5,2.2-2.8,2.2-3.8l-.3-45c-1.6,0-3,0-4.2,0,1-1.6,2.4-3.4,4-5.2,2-2.3,3.6-3.6,4.9-4v24.5c1.1-.9,2.9-2.3,5.2-4.1,2.5-1.9,5.1-2.9,7.6-2.9,4.3,0,7.6,1.7,9.8,5.2,1.9,3,2.9,6.7,2.9,11.2s-.7,6.4-2,9.9c-.8,2.1-2.1,5.2-3.8,9.4.3.1.5.4.7.7l5.3-1.3c0,2.2,0,4.2.3,6.1Z"/>
            <path class="cls-17" d="M877.6,862.7c-.8,3.4-2.9,6.1-6.2,8-2.9,1.7-6.3,2.5-10.1,2.5s-3.2-.3-4.9-1c-1.4-.5-2.9-1.1-4.6-1.7-1.7,1.2-2.6,2.7-2.6,4.3s.2,1.5.7,1.8c.4.3.8.6,1.2.9.1.3.2,1.5.2,3.4-3.5,0-5.3-1.6-5.3-4.5s1-4,3.1-8.2c-.6-.8-1.7-2.3-3.2-4.5-1.7-2.6-2.6-6.3-2.6-10.8s1.7-10.2,5.1-14.1c3.5-4.1,8-6.2,13.5-6.2s7.7,1.3,12.1,3.9l-18.5,28.5c2.1,2.1,5.1,3.2,9,3.2s4.2-.3,5.5-.8c.6-.3,2.1-1.2,4.3-2.8,1-.7,2.1-1.4,3.4-1.9ZM866,840.3c0-1.5-.8-2.7-2.5-3.7-1.4-.8-2.9-1.3-4.4-1.3-3.1,0-5.9,1.7-8.3,5.2-2.1,3.1-3.2,6.4-3.2,9.6,0,4.8,1.6,8.8,4.9,12,2.5-2.5,5.1-6,7.7-10.3,2.5-4.2,4.5-8,5.8-11.5Z"/>
          </g>
          <g>
            <g>
              <image class="cls-24" width="1201" height="543" transform="translate(27 673.1)" xlink:href="titileglow-1.png"/>
              <g>
                <image class="cls-26" width="879" height="215" transform="translate(187 837.1)" xlink:href="titileglow-2.png"/>
                <g>
                  <path class="cls-17" d="M302.4,947.8c-6.5,0-12.4,1.8-17.4,5.6-5.1,3.6-7.6,8.5-7.6,14.5s1.4,9.1,4.2,12.2c2.9,3,6.5,4.5,11,4.5s5.9-.9,8.5-2.6c2.6-1.8,3.8-3.8,3.8-5.9v-1.2c0-.5-.3-.5-.9-.2-.6.2-1.4.5-2.3.8s-1.7.5-2.4.6c-2.1,0-3.8-.5-5-1.5-1.5-1.2-2.4-3.3-2.4-6.2s1.4-6.2,4.1-8.3c2.7-2,6.2-3,10.6-3,6.6,0,11.9,2.6,16,7.7s6,11.6,6,19.8-2.4,13.7-7.1,18.3c-4.4,4.2-9.8,6.3-16.3,6.3s-10.7-1.1-16.9-3.3c-12.8-4.7-21.7-6.9-26.7-6.9s-9.8,1.1-15.3,3.2c-4.2,1.7-8.3,3.6-11.9,6,5-4.7,9.1-10.3,12.4-16.9,3.3-6.6,6.6-18.3,6.6-28.2v-84.7c0-1.4,1.1-2.9,3.3-4.5,2.9-2.1,4.2-3.3,4.4-3.5.3-.3.5-.8.5-1.2,0-.8-.6-1.2-2-1.2s-2,0-5,.3c-3,.2-5.9.3-8.8.3s-3.9,0-7.6-.3c-3.6-.3-5.7-.3-6.5-.3s-1.5.3-1.7.9,0,1.1.2,1.2c1.5,1.2,3.2,2.6,4.7,3.8,2.1,1.7,3.2,3.2,3.2,4.5v94.5c0,6.6-1.4,12.8-4.2,18.6-3.5,6.8-8.6,12.7-15.4,17.4-.5.5-.8.8-.8.9s.3.5.9.6c1.7.5,2.7.8,3.2.9,1.4.6,2.7,1.4,3.9,2.4,1.2,1.1,2.1,2,2.9,3.2.5.6.9,1.4,1.5,2.4.3.5.6.6.9.6s.8-.3,1.2-.9c2.1-2.6,4.7-4.7,7.9-5.9,3.2-1.4,7.2-2,12.4-2s13.7,2.3,27.5,6.9c6.2,2.1,11.8,3.2,17.1,3.2,10.7,0,19.8-3.6,27-10.7,7.2-7.1,11-15.9,11-26.4s-3.2-18.6-9.4-25.4c-6.2-6.8-14-10.3-23.6-10.3l.2-.6Z"/>
                  <path class="cls-17" d="M453.8,1007.9c-3.6-2.4-5.9-4.1-6.9-5.3-3-3.5-4.5-8.3-4.5-14.2v-63.1c0-1.4.9-2.9,2.9-4.5,1.1-.9,2.3-2,3.9-3.2.5-.5.6-.9.6-1.4,0-.9-.6-1.4-2-1.4-2.1.2-4.1.3-5.6.5-1.7,0-3.9.2-6.8.2s-2.6,0-6-.3c-3.3-.2-5.4-.3-6.2-.3-1.4,0-2.1.5-2.1,1.2s.2.9.6,1.2c1.4,1.2,2.7,2.4,4.2,3.5,1.8,1.7,2.7,3.2,2.7,4.4v65.4c-2.1,5.1-5.9,9.5-11.5,13.1-5.6,3.6-11.3,5.4-17.4,5.4-8.8,0-15.7-3.6-21-11s-7.9-16.8-7.9-28.1,2-19.9,6-29.9c3.5-8.5,8.3-16.8,14.6-24.9.3-.3.6-.8.8-1.5.2-.6.2-1.2,0-1.5s-.5-.6-.8-.6-.6,0-1.2.3c-2.3,1.2-4.5,2.4-6.8,3.6-2.3,1.2-4.7,2.3-7.2,3.3-2.6.9-5,1.7-7.2,2.3-1.2.3-2.6.6-3.6.9-1.2.3-1.8.6-1.8,1.2s.3.9.9,1.1l3.8,2c2.4,1.1,4.1,1.8,5,2.4,1.4.9,1.8,1.8,1.5,2.6-3.9,6.9-6.5,11.5-7.6,13.3-2.7,5.3-4.7,10.6-6,15.6-1.7,5.9-2.4,12.2-2.4,18.9,0,11.5,3,20.8,9.2,28.4,7.1,8.6,17.1,13,30.2,13s14-2.6,20.5-7.6c5.1-3.9,8.8-8.5,11.2-13.3,0,4.4,1.8,8.8,5.3,13,2.4,2.9,5,5.3,7.9,7.1.6.3,1.1.6,1.5.6s.8-.3,1.1-.8c.8-1.1,1.2-1.7,1.4-1.8.8-.9,1.5-1.8,2.4-2.7.9-.9,1.8-1.7,2.4-2.3,1.7-1.2,2.6-2,2.7-2.3.2-.3.3-.6.3-.9,0-.6-.3-1.1-.8-1.4l-.3-.2Z"/>
                  <path class="cls-17" d="M575.8,951.5c0-9.4-2.7-18-8.3-25.5-6.9-9.7-16.8-14.5-29.6-14.5s-13.7,2.9-20.4,8.5c-4.5,3.8-8.3,8.3-11.5,13.4-.6-3.8-2.9-8.2-6.8-13.1-2.9-3.8-5.6-6.6-8.2-8.6-.2-.2-.6-.3-.9-.3s-.9.2-1.2.6c-.5.6-1.1,1.2-1.7,2-.6.6-1.4,1.5-2.4,2.4-1.1,1.1-1.8,1.8-2.4,2.3-.6.6-1.4,1.2-2.4,2.1-.5.5-.6.9-.6,1.4s.3.9.9,1.2c3.9,2.1,6.6,3.9,8.3,5.6,3.6,3.8,5.4,8.8,5.4,14.8v63.3c0,1.2-1.2,2.9-3.6,4.7-1.4,1.2-2.4,2.1-3.2,2.9s-.9,1.4-.9,1.8c0,.8.9,1.2,2.6,1.2s3.9-.3,5.6-.5c1.7,0,3.8-.2,6.5-.2s5,0,7.9.3c2.9.3,4.5.3,4.8.3,1.2,0,1.8-.3,1.8-1.1s-.5-1.4-1.2-2.1c-1.4-1.1-2.7-2.3-4.1-3.3-1.7-1.4-2.4-2.7-2.4-3.9v-65.5c2.7-5.3,6.3-9.5,10.6-12.5,4.8-3.3,10.1-5,16.2-5,8.9,0,16,3.6,21.1,11,5,6.9,7.6,16,7.6,27.3s-1.1,13.4-3,19.9c-1.7,5.3-4.1,11.2-7.6,17.4-2.1,3.9-5.1,8.9-8.9,14.8-.2.3-.3.8-.3,1.2,0,1.7,1.1,2.3,3.2,2,2-.3,3.6-.5,4.8-.6h5c3,0,5.3,0,6.8.3,1.5.2,3,.6,4.7,1.2.9.3,2.4,1.1,4.5,2.3.3.3.8.5,1.1.5.9,0,1.2-.8.9-2.1,0-1.2-.3-2.6-.3-3.6v-3.3c0-1.1,0-1.5.2-3,0-1.5.3-2.7.5-3.8.3-1.2,0-2-.6-2s-.2,0-.5,0-.5.2-.6.3c-.6.5-1.8,1.4-3.6,2.9-1.8,1.2-3.8,2-5.7,2.3s-3.9.3-6.2.3h-3.3c7.2-8.2,12.7-17.2,16.5-26.9,3.8-9.7,5.6-19.8,5.6-30.4l-.5-.5Z"/>
                  <path class="cls-17" d="M698.2,1011.3c-1.1-1.7-1.7-3.5-2-5.3-.8-3.8-1.8-10.6-2.9-20.5-1.2-10-2.4-17.8-3.6-23.4-2-8.9-4.7-16.5-8-22.5-4.8-8.6-11-15.4-18.7-20.5-7.7-5-15.6-7.6-23.4-7.6s-15,1.5-20.7,4.5c-6.5,3.5-9.7,8.2-9.7,14.3s1.4,8.5,4.1,11.2,6.2,4.2,10.3,4.2,6.6-1.1,9.2-3.3c2.7-2.3,4.1-5,4.1-8.5s-.8-3.9-2.4-5.6c-1.7-1.7-3.5-2.6-5.4-2.7h-1.4c-.3,0-.3.5,0,.9.2.8.5,1.5.8,2.4.3.9.3,1.8.3,2.7s-.6,2.4-1.7,3.3c-1.1.9-2.3,1.4-3.8,1.4s-3.6-.8-4.8-2.3-1.8-3.3-1.8-5.7c0-3.9,2-7.1,5.9-9.4,3.5-2,7.6-3,12.2-3,7.7,0,15.3,3,22.5,8.9,5.7,4.7,10.9,10.7,15.1,18.1,3.6,6.2,5.4,10.9,5.4,14-2.7-3.2-6.6-5.7-11.8-8-5.1-2.3-10.6-3.3-16.2-3.3-11.6,0-21.6,3.6-29.9,10.7-8.8,7.4-13,16.6-13,27.6s3.9,19.8,11.9,26.6c7.6,6.5,16.8,9.7,27.8,9.7s15.3-2.4,22.4-7.1c6.3-4.4,11-9.5,13.7-15.3l.6,10.3c0,1.2-.2,2.4-.6,3.5-.5,1.1-.9,2-1.5,2.9-.3.5-.6.9-.6,1.2,0,.8.8,1.2,2.4,1.2s1.2,0,2.7-.3c1.5-.2,3-.3,4.2-.3,1.8,0,3.8,0,5.9.3,2.1.2,3.2.3,3.5.3,1.1,0,1.7-.3,1.7-1.1s-.3-.9-.8-1.7c-.3-.5-.9-1.4-2-3h-.2ZM673.6,1000.8c-5.7,5.4-13.3,8-22.8,8s-15.3-2.7-21.3-8.3c-5.9-5.6-8.9-12.4-8.9-20.4s2.9-13.9,8.8-19c5.9-5.1,12.7-7.7,20.5-7.7s17.4,2.4,23.4,7.2c5.9,4.8,8.9,11.2,8.9,19.3s-2.9,15.4-8.6,20.8h0Z"/>
                  <path class="cls-17" d="M795.8,916c-3.6-3-8.6-4.5-15-4.5s-14,2.3-20.1,6.9c-5.1,3.9-9.1,8.9-11.8,14.8-.6-4.5-3.2-9.1-7.4-13.4-2-2-4.8-4.4-8.9-7.1-.3-.2-.6-.3-.9-.3-.5,0-.9.3-1.4.8-.8,1.1-1.2,1.7-1.4,1.8-.8.9-1.5,1.8-2.4,2.7l-5,4.7c-.3.3-.5.6-.5,1.1s0,.6.5.6c5.9,2.6,9.7,5,11.5,7.1,2.6,3.2,3.9,7.2,3.9,12.2v63.3c0,1.4-1.1,2.9-3.3,4.7-.6.5-1.7,1.4-2.9,2.4-.9.9-1.2,1.7-1.2,2.3s.8,1.2,2.4,1.2,3.9-.3,5.4-.5c1.7,0,3.8-.2,6.5-.2s4.4.2,8.8.6h3.2c1.2,0,2.4-.5,2.4-1.4s-.3-1.2-1.1-2c-1.4-1.1-2.7-2.3-4.1-3.3-1.5-1.4-2.4-2.7-2.4-3.9v-65.5c2.4-5.6,5.7-10.4,10.1-14.3,5-4.5,10-6.8,15-6.8s7.1.8,9.2,2.4c1.8,1.4,2.7,3.3,2.7,5.7s-.6,3.6-1.8,5c-.9.9-1.8,1.5-2.9,2-1.1.3-2.3.6-3.6.6s-.8.2-.9.6v.9c.6,1.2,1.8,2.3,3.6,3,1.8.8,4.1,1.1,6.8,1.1s6.6-1.2,8.9-3.8,3.3-5.9,3.3-10.1-1.8-8-5.4-11v-.3Z"/>
                  <path class="cls-17" d="M860,914.9c-2.6,0-4.8.3-7.1.3h-6.9v-17.8c0-4.8.2-9.4.6-13.9.2-1.8.5-3.8.6-5.6,0-1.1-.3-1.7-.9-1.7s-.6.2-.9.6c-1.2,1.5-2.4,3-3.6,4.5-1.2,1.5-3,3.5-5.3,5.9-2,2-3.8,3.8-5.4,5.3-1.7,1.5-3.2,3-4.8,4.4-.5.5-.6.9-.6,1.2,0,1.1.5,1.5,1.5,1.5s1.2.2,2.4.3c1.8.5,2.7,2.9,2.7,6.9v8.2c-2.4,0-5,0-7.7-.2-2.7-.2-4.4-.2-4.7-.2-1.2,0-2,.6-2,1.7v3.5c0,1.2.5,1.7,1.5,1.7,2.1,0,4.2-.2,6.3-.3,2.1,0,4.2-.2,6.5-.2v69.8c0,8,1.7,15,5,20.7,2.4,4.1,5.1,7.1,8.2,8.8.5.3,1.1.5,1.5.5s1.2-.3,1.7-.9c.6-.8,1.8-2.1,3.8-3.8.5-.5,1.2-1.1,2.1-1.7.8-.5,1.4-.9,2-1.2.6-.5.9-.8.9-1.1,0-.6-.3-1.1-.9-1.5-3.3-2.7-5.4-4.7-6.2-5.7-2.9-3.6-4.2-7.9-4.2-13v-70.8c2.7,0,5.7,0,8.9.2,3.2,0,4.8.2,5.3.2,1.1,0,1.5-.6,1.5-1.7v-3.6c0-1.1-.5-1.5-1.5-1.5l-.2.3Z"/>
                  <path class="cls-17" d="M898.5,893.5c2.6,0,4.8-.9,6.8-2.6,1.8-1.8,2.9-3.9,2.9-6.3s-.9-4.8-2.7-6.8-3.9-2.9-6.5-2.9-4.8.9-6.6,2.7c-2,1.8-2.9,3.9-2.9,6.5s.9,4.8,2.7,6.6c1.8,1.8,3.9,2.9,6.5,2.9l-.2-.2Z"/>
                  <path class="cls-17" d="M908.7,1010.5c-1.5-1.4-2.3-2.6-2.3-3.8v-74.3c0-5,.2-9.4.5-13,.3-3.6.6-6.2,1.1-7.9.3-1.2,0-2-.9-2s-.6.2-1.1.6c-.5.3-1.7,1.2-3.6,2.6-2,1.4-4.5,3.2-7.9,5.1-1.4.9-3.2,2-5.7,3.2-1.7.9-2.9,1.5-3.5,2-.6.5-1.1.9-1.1,1.4s.5,1.1,1.2,1.2,2.4.8,4.5,1.7c1.7,1.2,2.6,3.6,2.6,7.1v71.7c0,1.2-.8,2.6-2.4,3.9-.9.8-2.1,2-3.9,3.3-.8.9-1.1,1.5-1.1,2,0,.9.9,1.4,2.6,1.4s3.9-.3,5.4-.5c1.7,0,3.6-.2,6.2-.2s4.4.2,8.8.6h3.2c1.2,0,2.4-.5,2.4-1.2s-.5-1.2-1.2-2.1c-1.4-1.1-2.7-2.1-3.9-3.3l.2.5Z"/>
                  <path class="cls-17" d="M1034.9,981.2c-.7-.4-1.8,1.7-7.1,6.1,0,0-3.9,3.2-7.7,5.7-7.9,5.1-17.5,5.4-21.2,5.5-4.4.1-15.8.3-27.5-6.9-2.1-1.3-11.9-7.6-17.9-20.3-4.5-9.7-4.5-18.2-4.5-24.4,0-4.9,0-12.7,3.6-22,1-2.6,6.7-17.3,22-27.3,9-5.9,16.4-6.9,18.6-7.2,3-.3,7.8-.7,12.8,1.6,1.8.9,3.1,2.1,5.3,3.6,5.6,3.9,8.6,9.1,8.6,15.8s-1.2,8.4-3.5,11.5c-2.3,3.2-5.3,4.6-9.1,4.6s-5.1-.7-7.2-2.2c-2.1-1.5-3.3-3.5-3.8-6.3v-2.2c0-1.5.2-3,.7-4.6,0-.7.5-1.9.8-3,.2-.7,0-1.3-.3-1.9-.3-.6-1.2-.6-2-.2-1.5.8-4.1,2.5-6.3,5.6-.7.9-2.1,3.2-2.9,6.4-.1.5-.6,2.3-.6,4.6,0,6.1,2.1,11,6.6,15.1,4.1,3.7,8.9,5.6,14.5,5.6s12.2-2.8,16.6-8.2c4.4-5.4,6.7-12.3,6.7-20.3s-3.8-17.3-11.4-23.4c-6.9-5.6-15.1-8.4-24.5-8.4-16.3,0-30.1,6.7-41.8,20.3-11.7,13.6-17.4,29.4-17.4,47.6s5.1,37.2,15.3,48.9c10,11.5,23.5,17.3,40.5,17.3s10.5,0,18.3-3c3.4-1.3,8.5-3.3,13.5-8,10.8-10.2,13.8-25.2,12.1-26Z"/>
                </g>
              </g>
            </g>
            <circle class="cls-15" cx="271.3" cy="879.9" r="16.8"/>
            <circle class="cls-12" cx="281.4" cy="898.1" r="12.9"/>
            <circle class="cls-18" cx="1029.7" cy="1011.2" r="19.1"/>
            <circle class="cls-19" cx="906.7" cy="868.9" r="12.3"/>
            <circle class="cls-14" cx="1046.9" cy="999.6" r="9.6"/>
            <g class="cls-21">
              <ellipse class="cls-17" cx="655.4" cy="980.2" rx="7.6" ry="7.8"/>
            </g>
          </g>
        </g>
      </g>
    </g>
  </g>
</svg>